<?xml version="1.0" encoding="utf-8"?>
<!-- Generator: Adobe Illustrator 23.0.1, SVG Export Plug-In . SVG Version: 6.00 Build 0)  -->
<svg version="1.1" id="Layer_1" xmlns="http://www.w3.org/2000/svg" xmlns:xlink="http://www.w3.org/1999/xlink" x="0px" y="0px"
	 viewBox="0 0 55.8 55.7" style="enable-background:new 0 0 55.8 55.7;" xml:space="preserve">
<style type="text/css">
	.st0{fill:#2BAE9D;}
</style>
<path class="st0" d="M49.8,11.8L28.1,33.5c-3.1,3.1-7.3,5.2-11.7,5.7c0.6-4.4,2.6-8.6,5.7-11.7L43.8,5.8c1.7-1.6,4.4-1.4,6,0.2
	C51.3,7.8,51.3,10.2,49.8,11.8L49.8,11.8z M39.5,48.8c0,1.3-1,2.3-2.3,2.3H7c-1.3,0-2.3-1-2.3-2.3V18.6c0-1.3,1-2.3,2.3-2.3h20l-8,8
	c-4.6,4.6-7.3,10.9-7.2,17.5c0,1.3,1,2.3,2.3,2.3c6.6,0,12.9-2.6,17.5-7.2l8-8l0,19.8H39.5z M46.8,0c-2.3,0-4.6,0.9-6.3,2.6
	l-8.9,9.1H7c-3.8,0-7,3.1-7,7v30.2c0,3.8,3.1,7,7,7h30.2c3.8,0,7-3.1,7-7V24.1l9.1-9.1c3.5-3.5,3.5-9.1,0-12.5
	C51.4,0.9,49.2,0,46.8,0L46.8,0z"/>
</svg>
