<?xml version="1.0" encoding="utf-8"?>
<!-- Generator: Adobe Illustrator 23.0.1, SVG Export Plug-In . SVG Version: 6.00 Build 0)  -->
<svg version="1.1" id="Layer_1" xmlns="http://www.w3.org/2000/svg" xmlns:xlink="http://www.w3.org/1999/xlink" x="0px" y="0px"
	 viewBox="0 0 77.3 78.5" style="enable-background:new 0 0 77.3 78.5;" xml:space="preserve">
<style type="text/css">
	.st0{fill:#FFFFFF;}
</style>
<path class="st0" d="M62.4,78.5H49.8c-3,0-5.4-2.4-5.4-5.4V55.3H32.9v17.8c0,3-2.4,5.4-5.4,5.4l-12.6,0c-3,0-5.4-2.4-5.4-5.4V47.4
	H4.9c-2,0-3.7-1.2-4.5-3c-0.8-1.8-0.4-3.9,0.9-5.3L34.5,1.9C35.6,0.7,37.1,0,38.7,0c0,0,0,0,0,0c1.5,0,3,0.7,4.1,1.8l33.3,37.4
	c1.3,1.5,1.6,3.5,0.8,5.3c-0.8,1.8-2.5,2.9-4.5,2.9h-4.5v25.7C67.8,76.1,65.4,78.5,62.4,78.5z M50.4,72.5h11.5V41.4H70L38.7,6.2
	L7.3,41.4h8.2v31.1l11.4,0V54.9c0-3.1,2.5-5.6,5.6-5.6h12.4c3.1,0,5.6,2.5,5.6,5.6V72.5z M5.8,43.1L5.8,43.1
	C5.7,43.1,5.8,43.1,5.8,43.1z"/>
</svg>
