<?xml version="1.0" encoding="utf-8"?>
<!-- Generator: Adobe Illustrator 23.0.1, SVG Export Plug-In . SVG Version: 6.00 Build 0)  -->
<svg version="1.1" id="Layer_1" xmlns="http://www.w3.org/2000/svg" xmlns:xlink="http://www.w3.org/1999/xlink" x="0px" y="0px"
	 viewBox="0 0 75 53.6" style="enable-background:new 0 0 75 53.6;" xml:space="preserve">
<style type="text/css">
	.st0{fill:#FFFFFF;}
</style>
<path class="st0" d="M47.6,30.8L65,48.2H10l17.4-17.4l4.8,4.5c2.9,2.8,7.6,2.8,10.5,0L47.6,30.8z M69.7,9.8v35.5L51.5,27.1L69.7,9.8
	z M5.4,9.8l18.3,17.3L5.4,45.3V9.8z M8.4,5.4h58.2L39.1,31.5c-1,1-2.1,1-3.1,0L8.4,5.4z M8,0C3.6,0,0,3.8,0,8.2v37.1
	c0,4.5,3.6,8.3,8,8.3H67c4.5,0,8-3.8,8-8.3V8.2C75,3.8,71.4,0,67,0H8z"/>
</svg>
