<?xml version="1.0" encoding="utf-8"?>
<!-- Generator: Adobe Illustrator 23.0.1, SVG Export Plug-In . SVG Version: 6.00 Build 0)  -->
<svg version="1.1" id="Layer_1" xmlns="http://www.w3.org/2000/svg" xmlns:xlink="http://www.w3.org/1999/xlink" x="0px" y="0px"
	 viewBox="0 0 739 996" style="enable-background:new 0 0 739 996;" xml:space="preserve">
<path d="M10.7,958.2c-0.2-4.8,1.5-8.4,4.2-11.8c0.7-0.9,1.1-2.3,1.1-3.4c0.1-6.4,0.1-12.8,0.1-20.1c2,2.3,3.6,4,5.1,5.8
	c2.3,2.8,4.2,6.7,7.1,8c2.7,1.1,6.6-0.7,10-1.1c7.7-1.1,15.3-0.7,22.8,1.5c2,0.6,3.1,0.1,4.3-1.4c3.3-4.1,6.8-8.1,10.8-12.9
	c0,7-0.1,13,0.1,19c0.1,1.8,0.8,3.9,1.8,5.4c4.9,6.6,4.8,14.3-0.7,20.4c-5.4,6.1-12.6,9-20.4,10.5c-12.3,2.4-24.2,1.3-35.3-5
	c-5.2-2.9-9.4-6.9-10.9-13.1c-0.2-0.6-1.2-1.3-1.9-1.5c-1.2-0.2-2.5-0.1-3.7-0.3C7,958.2,8.7,958.2,10.7,958.2z"/>
<path d="M186.4,958.3c1.6,0,3.3,0,5.1,0c-0.1-4.9,1.7-8.8,4.8-12.3c0.6-0.7,0.7-2.2,0.7-3.3c0.1-6.3,0-12.7,0-19.9
	c4.1,4.8,7.6,8.9,11,13.1c1.2,1.5,2.2,1.8,4.1,1.3c10.1-2.9,20.2-2.9,30.3,0c1.8,0.5,2.7,0,3.8-1.3c3.4-4.2,6.9-8.3,11-13.1
	c0,7.1-0.1,13.4,0.1,19.6c0,1.5,0.7,3.3,1.6,4.5c5.4,6.9,5.2,14.7-0.8,21.2c-5.4,5.8-12.4,8.6-19.9,10c-12.3,2.4-24.2,1.2-35.3-5
	c-5.3-2.9-9.4-7-10.9-13.2c-0.2-0.6-1.2-1.3-1.9-1.5c-1.1-0.2-2.3-0.1-3.5-0.1C186.5,958.4,186.4,958.3,186.4,958.3z"/>
<path d="M709,107.5c0,6.3-0.1,12.5,0.1,18.8c0,1.3,0.4,2.8,1.2,3.8c6.5,8.6,5.5,17.6-3.2,24.3c-9,6.9-19.4,8.9-30.5,8.5
	c-8.7-0.3-16.9-2.3-24.1-7.3c-5.7-4-9.9-9.1-8.7-16.5c0.4-2.8,2.3-5.4,3.4-8.1c0.7-1.7,1.7-3.4,1.7-5.1c0.2-6.1,0.1-12.1,0.1-19.3
	c2.9,3.5,5.5,6.1,7.5,9c3,4.4,6,6.1,11.7,4.4c8.4-2.4,17.1-1.8,25.6,0.9c1.9,0.6,3.1,0.1,4.4-1.4c3.3-4.1,6.8-8.1,10.2-12.2
	C708.5,107.3,708.8,107.4,709,107.5z"/>
<path d="M468.2,468.7c3.8,4.5,7.4,8.6,10.8,12.8c1.1,1.4,2.1,1.7,3.8,1.2c10.1-2.9,20.2-3,30.3,0c2,0.6,2.9,0,4-1.3
	c3.4-4.1,6.8-8.2,10.6-12.6c0.2,1,0.3,1.7,0.3,2.3c0,3.7,0.1,7.5,0,11.2c-0.1,4.6,0.2,8.8,3.2,13.1c5.1,7.3,2,16.4-6.7,22.1
	c-10.3,6.8-21.7,8.4-33.7,6.9c-8.5-1-16.5-3.6-22.8-9.8c-6.9-6.7-7.3-14.7-1.5-22.3c0.8-1.1,1.3-2.6,1.4-4
	c0.2-6.1,0.1-12.2,0.1-18.2C468,469.8,468.1,469.6,468.2,468.7z"/>
<path d="M468.6,831.1c3.4,4,6.8,8,10.1,12.1c1.3,1.7,2.4,1.9,4.6,1.4c9.9-2.8,19.8-2.8,29.6,0.1c1.8,0.5,2.9,0.3,4.1-1.2
	c3.4-4.2,6.9-8.3,10.8-12.9c0.1,1.4,0.2,2.3,0.2,3.1c0,5.4-0.1,10.9,0.1,16.3c0.1,1.5,0.7,3.3,1.6,4.5c5.6,7.2,5.2,14.7-1.1,21.5
	c-3.7,4-8.4,6.5-13.6,8.1c-13.5,4.2-26.8,3.9-39.5-2.4c-3.4-1.7-6.6-4.3-9.2-7.2c-5.1-5.8-5.1-13.2-0.3-19.3c1.5-1.9,2.1-3.7,2-6.1
	c-0.1-5.9,0-11.7,0-17.6C468,831.4,468.2,831.4,468.6,831.1z"/>
<path d="M197.1,741.8c3.9,4.6,7.3,8.5,10.5,12.5c1.4,1.8,2.7,2.4,5.1,1.7c9.7-2.8,19.6-2.8,29.3,0.1c2,0.6,3.1,0.1,4.3-1.4
	c3.3-4.1,6.8-8.1,10.8-11.8c0,6.2-0.1,12.5,0.1,18.7c0,1.3,0.4,2.8,1.2,3.7c6.6,8.6,5.6,17.6-3.1,24.3c-8.2,6.3-17.8,8.5-27.9,8.5
	c-8.9,0.1-17.4-1.6-25.1-6.3c-6.6-4.1-11.6-9.4-10.4-17.8c0.4-2.8,2.5-5.4,3.7-8.2c0.6-1.4,1.4-2.8,1.5-4.3
	C197.2,755.3,197.1,749,197.1,741.8z"/>
<path d="M16.1,741.8c3.8,4.4,7.1,7.9,9.9,11.8c1.9,2.5,3.7,2.9,6.7,2.1c9.3-2.6,18.8-2.4,28.1,0.3c2,0.6,3.3,0.4,4.6-1.3
	c3.3-4.1,6.8-8.1,10.8-12.9c0,7-0.1,13.1,0.1,19.2c0.1,1.7,0.7,3.7,1.8,5.1c5.1,6.9,4.9,14.6-1,20.9c-5.4,5.8-12.3,8.7-19.9,10.1
	c-13.9,2.5-27.2,1.3-39-7.3c-5.3-3.9-8.3-9.2-7.4-15.9c0.4-2.7,2.4-5.1,3.6-7.7c0.7-1.6,1.6-3.2,1.6-4.9
	C16.3,755.2,16.1,749,16.1,741.8z"/>
<path d="M648.9,468.4c4,4.8,7.6,8.8,10.9,13c1.2,1.5,2.2,1.8,4,1.3c10.2-3,20.4-2.8,30.6,0c0.9,0.2,2.5-0.2,3.1-1
	c3.7-4.1,7.2-8.4,11.1-13.1c0.1,1.3,0.3,2.1,0.3,2.8c0,4.2,0.1,8.3,0,12.5c-0.1,4,0.3,7.4,3,10.9c4.3,5.7,3.1,13.5-2.2,18.9
	c-5.5,5.7-12.4,8.6-20,10c-13.2,2.4-25.9,1.2-37.5-6.3c-7.6-5-10.6-12.7-7.9-19.9c0.4-1.1,0.8-2.3,1.6-3.1c3-2.8,3-6.3,2.9-10
	C648.8,479.4,648.9,474.4,648.9,468.4z"/>
<path d="M528,106.4c0,7.3-0.1,13.7,0.1,20.1c0,1.3,0.5,2.7,1.2,3.7c6.3,8,5.6,16.8-2.3,23.4c-9,7.6-19.8,9.6-31.1,9.3
	c-8.4-0.2-16.5-2.1-23.6-6.8c-6-3.9-10.5-9-9.5-16.8c0.4-2.9,2.3-5.6,3.5-8.4c0.7-1.7,1.6-3.4,1.7-5.2c0.2-6,0.1-12.1,0.1-19.2
	c3.6,4.3,6.9,7.7,9.6,11.5c2,2.8,3.9,3.2,7.2,2.3c9-2.5,18.2-2.4,27.1,0.2c2.8,0.8,4.2,0.2,5.9-1.9
	C520.9,114.7,524.2,110.9,528,106.4z"/>
<path d="M378.8,742.7c3.2,3.8,6.5,7.5,9.5,11.4c1.6,2,2.9,2.7,5.6,1.9c9.5-2.7,19.2-2.7,28.7,0.1c2.2,0.7,3.5,0.2,4.9-1.6
	c3.2-4,6.5-7.9,10.2-12.2c0.1,1.2,0.3,2,0.3,2.7c0,3.5,0.1,7,0,10.6c-0.1,4.7,0.1,8.9,3.3,13.1c3.9,5.1,3,11.7-1.1,16.9
	c-5.3,6.7-12.7,9.9-20.8,11.5c-12.7,2.5-25.1,1.5-36.5-5.3c-6.5-3.9-11.2-9.2-10.2-17.3c0.3-2.9,2.4-5.5,3.6-8.3
	c0.7-1.6,1.6-3.2,1.7-4.8c0.2-6.1,0.1-12.3,0.1-18.4C378.4,742.8,378.6,742.7,378.8,742.7z"/>
<path d="M378.8,923.7c3.4,4,6.9,8,10.2,12.2c1.2,1.5,2.2,1.8,4.1,1.3c10-2.9,20-2.9,30,0c1.8,0.5,2.9,0.3,4.1-1.2
	c3.3-4.1,6.8-8.1,10.6-12.6c0.1,1.2,0.3,2,0.3,2.8c0,3.9,0.1,7.9,0,11.8c-0.1,4.1,0.3,7.6,3,11.3c4.7,6.4,3.1,14.2-3.1,20.1
	c-6.5,6.1-14.6,8.7-23.2,9.7c-11.3,1.3-22.1-0.3-32-6.3c-2.1-1.3-4.2-3-5.8-4.9c-5.7-6.7-5.8-13.4-0.4-20.6c0.9-1.2,1.6-3,1.6-4.5
	c0.2-6.2,0.1-12.3,0.1-18.5C378.4,923.8,378.6,923.7,378.8,923.7z"/>
<path d="M16.1,379.8c4,4.8,7.5,8.7,10.8,12.9c1.3,1.6,2.5,2,4.6,1.4c9.7-2.8,19.6-2.8,29.3,0c2.3,0.7,3.4,0.1,4.8-1.6
	c3.2-4.1,6.7-8,10.6-12.6c0,6.8,0.1,12.9,0,18.9c0,2.2,0.6,3.9,1.8,5.8c1.7,2.6,3.1,5.7,3.5,8.7c0.7,5.5-2,10.3-6.9,14.3
	c-5.4,4.4-11.8,6.9-18.6,7.9c-12.9,1.9-25.3,0.8-36.5-6.7c-8.9-6-12.3-16.5-4.3-25.5c0.7-0.8,0.9-2.1,0.9-3.2
	C16.2,393.7,16.1,387.3,16.1,379.8z"/>
<path d="M16.8,18.6c3.3,3.9,6.6,7.8,9.8,11.8c1.4,1.8,2.7,2.4,5.1,1.7c9.5-2.8,19.2-2.9,28.7-0.1c2.6,0.8,4,0.1,5.6-1.9
	c3-3.9,6.4-7.6,10.2-12.2c0,6.4,0.1,11.9,0,17.3c-0.1,3.1,0.5,5.6,2.5,8.2c5.8,7.8,3.3,17.5-5.8,23.5c-11.6,7.6-24.5,8.7-37.8,6.3
	c-6-1.1-11.6-3.4-16.6-7.1c-7.9-5.9-11-15.9-3.4-24.7c0.7-0.8,1-2.3,1-3.5c0.1-6.4,0-12.7,0-19.1C16.4,18.7,16.6,18.7,16.8,18.6z"/>
<path d="M16.8,561.5c3.3,4,6.7,7.9,10,11.9c1.3,1.6,2.5,2.3,4.8,1.6c9.8-2.8,19.8-2.8,29.6,0.1c1.8,0.5,2.9,0.2,4.1-1.3
	c3.4-4.2,6.9-8.2,10.9-13c0,7.2-0.1,13.6,0,19.9c0,1.2,0.3,2.6,1,3.5c7.8,9,4.7,19-3.7,25.1c-8.4,6.1-18,8-28.1,8
	c-8.3-0.1-16.3-1.6-23.6-6c-6.6-4-11.5-9-11.2-17.5c0.1-3.3,2.1-5.6,3.4-8.2c0.9-1.8,1.8-3.8,1.9-5.7c0.2-5.9,0.1-11.9,0.1-17.9
	C16.4,561.8,16.6,561.7,16.8,561.5z"/>
<path d="M528,287.4c0,7.2-0.1,13.5,0.1,19.9c0,1.3,0.4,2.8,1.1,3.8c6.5,8.5,5.6,17-2.6,23.8c-6.1,5.1-13.3,7.5-21,8.5
	c-11.9,1.5-23.4,0.1-33.7-6.7c-5.8-3.8-10.1-8.9-9.1-16.3c0.4-3.1,2.5-5.9,3.7-8.9c0.6-1.4,1.4-2.9,1.4-4.3
	c0.2-6.2,0.1-12.4,0.1-19.4c1.2,1.2,1.9,2,2.6,2.8c2.9,3.4,5.7,6.9,8.7,10.2c0.7,0.7,2.2,1.3,3.2,1c10.3-2.9,20.6-2.9,30.9,0
	c1,0.3,2.7-0.4,3.4-1.2C520.5,296.5,523.9,292.2,528,287.4z"/>
<path d="M287.8,288.3c3.4,4,6.8,7.9,10,12c1.2,1.5,2.3,2,4.3,1.4c10-2.9,20-2.9,29.9,0c1.8,0.5,2.9,0.2,4.1-1.3
	c3.3-4.2,6.8-8.1,10.9-12.9c0,3.8,0,6.8,0,9.8c0,1.8,0.1,3.6,0,5.4c-0.2,4,0.4,7.4,3,10.9c5.5,7.7,2.4,17.4-7,23.2
	c-11.6,7.2-24.2,8.3-37.3,5.8c-6.1-1.2-11.9-3.5-16.8-7.4c-7.5-6-10.6-15.3-3-24.3c0.8-0.9,1.1-2.5,1.1-3.8
	c0.1-6.3,0.1-12.5,0.1-18.8C287.3,288.4,287.5,288.3,287.8,288.3z"/>
<path d="M648.9,830.4c4.2,4.9,7.7,9.2,11.4,13.3c0.6,0.7,2.2,1.3,3.1,1c10.4-2.8,20.8-2.8,31.3,0.1c0.8,0.2,2.3-0.2,2.8-0.9
	c3.1-3.4,5.9-7,8.9-10.5c0.7-0.8,1.4-1.5,2.6-2.8c0,7-0.1,13.2,0.1,19.5c0,1.5,0.6,3.3,1.6,4.6c5.6,7.2,5,15.2-1.3,21.7
	c-4.1,4.2-9.2,6.8-14.9,8.4c-13.6,3.7-26.8,3.2-39.4-3.6c-2.8-1.5-5.3-3.6-7.4-5.9c-5.6-6.3-5.5-13.7-0.5-20.4
	c1-1.3,1.6-3.2,1.7-4.8C649,843.7,648.9,837.5,648.9,830.4z"/>
<path d="M76.2,199.8c0,6.4-0.1,12.7,0,19.1c0,1.2,0.3,2.6,1,3.5c7.2,8.4,5.3,17.8-3,24.5c-14.1,11.5-42.7,11.2-56.7-0.5
	c-8.2-6.9-9.1-15.3-2.6-23.9c0.7-0.9,1.1-2.3,1.1-3.4c0.1-6.4,0.1-12.8,0.1-20.1c2.7,3.1,5.1,5.4,6.9,8.2c3.3,5,6.8,7,13.3,5.1
	c8.1-2.4,16.7-1.4,24.9,1c1.8,0.5,2.9,0.3,4-1.2c3.3-4.2,6.8-8.2,10.2-12.2C75.8,199.7,76,199.7,76.2,199.8z"/>
<path d="M709,649.3c0,7.4-0.1,13.6,0.1,19.9c0,1.4,0.6,3.1,1.5,4.3c5.6,7.4,5.2,15.3-1.3,21.8c-7,6.9-16,9.6-25.5,10.3
	c-11.3,0.9-22.2-0.8-31.7-7.4c-5.5-3.8-9.5-8.9-8.4-16.1c0.4-2.9,2.3-5.6,3.5-8.4c0.7-1.6,1.6-3.2,1.6-4.9
	c0.2-6.2,0.1-12.3,0.1-19.4c3.6,4.2,6.7,7.7,9.6,11.4c1.9,2.5,3.6,3.4,7.1,2.5c9.4-2.6,19-2.4,28.4,0.4c1.9,0.5,2.9,0.2,4-1.2
	C701.4,658.3,704.9,654.2,709,649.3z"/>
<path d="M287.7,469.2c3.5,4.1,6.9,8.3,10.5,12.4c0.7,0.8,2.4,1.3,3.4,1c10.2-2.7,20.4-2.9,30.6,0.1c1.8,0.5,2.7,0.1,3.8-1.2
	c3.3-4.1,6.8-8.2,11-13.1c0,2.3,0,3.6,0,5c0,2.9,0,5.8,0,8.6c0,4.6,0.2,8.8,3.2,13.1c5.2,7.5,2.2,16.4-6.7,22.3
	c-10.1,6.7-21.3,8.2-33.1,7c-7.7-0.8-15-3.2-21.2-8c-7.8-6-11-15.7-3.2-24.7c0.8-0.9,1-2.5,1-3.8c0.1-6.2,0-12.3,0-18.5
	C287.3,469.4,287.5,469.3,287.7,469.2z"/>
<path d="M438.1,19.1c0,6.2-0.1,12.3,0.1,18.5c0,1.4,0.5,3,1.3,4c6.3,8.3,5.6,16.7-2.3,23.4c-8.6,7.2-18.9,9.4-29.9,9.3
	c-10.4-0.2-20.2-2.4-28.2-9.4c-8-7-8.6-15-2.1-23.4c0.8-1,1.1-2.5,1.2-3.8c0.1-6.3,0.1-12.5,0.1-19.8c3.9,4.6,7.3,8.4,10.4,12.4
	c1.5,1.8,2.8,2.3,5.1,1.6c9.6-2.8,19.4-2.8,29,0c2.3,0.7,3.4,0.1,4.8-1.6c3.2-4,6.6-7.8,9.9-11.7C437.6,18.9,437.9,19,438.1,19.1z"
	/>
<path d="M257.2,562c0,6.3-0.1,12.6,0.1,18.8c0,1.3,0.5,2.8,1.3,3.7c7.4,8.7,4.5,18.1-3.2,24.1c-8.5,6.7-18.6,8.7-29.2,8.5
	c-9.2-0.1-18-2.1-25.7-7.5c-5.4-3.8-9.1-8.6-8.7-15.7c0.1-2.4,1.5-5.7,3.5-8.8c1-1.5,1.7-3.4,1.8-5.1c0.2-6.1,0.1-12.3,0.1-19.3
	c4,4.7,7.5,8.8,10.9,13c1.2,1.6,2.4,1.9,4.3,1.4c9.9-2.8,19.8-2.8,29.6,0c1.9,0.5,3.1,0.3,4.4-1.3c3.3-4.1,6.8-8.1,10.2-12.2
	C256.7,561.7,256.9,561.9,257.2,562z"/>
<path d="M347,649.4c0,7.2,0,13.5,0,19.8c0,1.2,0.3,2.7,1,3.5c8.4,9.6,4.4,19.8-4.3,25.6c-11.2,7.6-23.8,8.8-36.8,6.6
	c-8.3-1.4-16-4.5-21.6-11.3c-5.1-6.2-5-13.2-0.3-19.7c1.1-1.6,1.9-3.8,2-5.7c0.2-5.9,0.1-11.9,0.1-18.8c4.1,4.9,7.6,8.9,11,13.1
	c1.1,1.3,2,1.7,3.8,1.2c10.1-2.9,20.2-3,30.3-0.1c1.8,0.5,2.9,0.2,4-1.3C339.4,658.3,342.9,654.3,347,649.4z"/>
<path d="M378.1,198.9c4,4.7,7.5,8.7,10.7,12.8c1.2,1.6,2.3,2,4.3,1.4c10-2.9,20-2.8,30,0c2.1,0.6,3,0,4.2-1.5
	c3.2-4.1,6.7-8,10.5-12.6c0.1,1.7,0.2,2.7,0.2,3.7c0,4.3,0.1,8.5-0.1,12.8c-0.2,3.4,0.6,6.2,2.7,9.1c4.8,6.3,3.6,14.6-2.6,20.4
	c-6.8,6.4-15.3,9.1-24.4,9.9c-11.8,1.1-23-0.6-32.9-7.6c-8.1-5.8-12-15.6-3.8-25.1c0.7-0.8,1-2.3,1-3.5
	C378.2,212.5,378.1,206.2,378.1,198.9z"/>
<path d="M468,649.4c3.9,4.7,7.3,8.6,10.6,12.6c1.3,1.7,2.5,2.3,4.8,1.6c9.8-2.9,19.8-2.8,29.6,0c2,0.6,3.1,0,4.3-1.4
	c3.3-4.1,6.8-8.1,10.8-12.9c0,7,0.1,13.1,0,19.2c0,2.2,0.5,3.8,1.9,5.5c5,6.1,4.8,13.7-0.2,19.8c-4.3,5.2-10.1,8.2-16.5,9.8
	c-15.1,4-29.6,3.2-42.8-6c-5.2-3.6-8.7-8.7-7.7-15.4c0.4-2.9,2.3-5.6,3.5-8.4c0.7-1.7,1.6-3.4,1.7-5.2
	C468.1,662.6,468,656.5,468,649.4z"/>
<path d="M648.9,287.4c4,4.7,7.5,8.7,10.8,12.8c1.2,1.6,2.3,2,4.3,1.4c10.1-2.9,20.2-2.8,30.3,0c1,0.3,2.7-0.3,3.4-1.1
	c3.7-4.1,7.2-8.3,11.3-13.2c0,7.2-0.1,13.4,0.1,19.6c0,1.5,0.6,3.3,1.6,4.5c5.4,7.1,5.2,14.9-1.1,21.4c-6.2,6.5-14.3,9.2-22.8,10.4
	c-12.1,1.6-23.9,0.2-34.3-6.9c-5.7-3.9-10-9-8.7-16.5c0.5-3,2.5-5.7,3.8-8.6c0.6-1.3,1.3-2.6,1.4-4
	C649,301.1,648.9,294.7,648.9,287.4z"/>
<path d="M257.2,379.9c0,7.1-0.1,13.2,0.1,19.4c0.1,1.6,0.7,3.5,1.7,4.8c5.5,7.2,5,15.4-1.6,21.8c-5.9,5.7-13.2,8.5-21.2,9.6
	c-12.7,1.8-25,0.6-35.8-6.9c-5.5-3.8-9.4-8.9-8.4-16.1c0.4-2.8,2.3-5.4,3.3-8.1c0.7-1.8,1.7-3.6,1.8-5.4c0.2-6.1,0.1-12.1,0.1-19.1
	c3.1,3.7,6,6.6,8.3,9.9c2.6,3.8,5.3,5,10.2,3.7c8.8-2.4,17.8-1.9,26.5,0.7c2,0.6,3.1,0.1,4.3-1.5
	C249.7,388.6,253.2,384.6,257.2,379.9z"/>
<path d="M257.2,199.9c0,6.3-0.1,12.5,0.1,18.8c0,1.4,0.5,2.9,1.3,4c6.2,8.1,5.4,16.8-2.5,23.4c-6.8,5.7-14.8,8.2-23.5,9
	c-11.3,0.9-22.1-0.6-31.8-7c-8.4-5.6-13.2-16.1-4.6-25.8c0.7-0.7,0.9-2.1,0.9-3.2c0.1-6.4,0-12.8,0-20.1c3.4,4.1,6.5,7.3,9.2,11
	c2.2,3,4.3,4,8.2,2.9c9-2.5,18.1-2.2,27.1,0.3c2.2,0.6,3.6,0.3,5.1-1.6c3.1-4,6.5-7.8,9.8-11.7C256.7,199.7,256.9,199.8,257.2,199.9
	z"/>
<path d="M287.8,107.4c3.3,4,6.8,7.9,10,11.9c1.4,1.7,2.6,2,4.6,1.4c9.9-2.8,19.8-2.8,29.6,0.1c1.8,0.5,2.9,0.3,4.1-1.2
	c3.3-4.2,6.8-8.2,10.6-12.6c0.2,1.3,0.3,2,0.3,2.8c0,3.7,0.1,7.5,0,11.2c-0.1,4.4,0.3,8.2,3.1,12.2c4.9,6.9,2.6,15.4-4.9,21.3
	c-7.7,6-16.7,8.3-26.3,8.6c-10.7,0.3-20.8-1.7-29.6-8.2c-7.6-5.6-11.4-15.4-3.6-24.6c0.8-0.9,1.1-2.5,1.2-3.8c0.1-5.2,0-10.4,0-15.7
	c0-1,0-2,0-3C287.3,107.5,287.5,107.4,287.8,107.4z"/>
<path d="M378.1,560.9c4,4.7,7.4,8.6,10.6,12.6c1.4,1.7,2.6,2.2,4.8,1.5c9.7-2.8,19.6-2.7,29.3,0c2,0.6,3.1,0.2,4.3-1.3
	c3.3-4.1,6.8-8.1,10.8-13c0,7.3-0.1,13.7,0,20c0,1.2,0.3,2.6,1.1,3.5c8.1,9.3,4.2,19.2-3.7,24.9c-8,5.8-17.1,7.9-26.8,8
	c-10.1,0.1-19.7-1.9-28.1-8c-7.8-5.8-11.7-15.4-3.7-24.8c0.7-0.9,1.1-2.3,1.1-3.4c0.1-5.3,0.1-10.7,0.1-16
	C378.1,563.9,378.1,562.9,378.1,560.9z"/>
<path d="M257.2,19.2c0,6.2-0.1,12.4,0.1,18.5c0,1.4,0.5,2.9,1.4,4c6.1,7.9,5.4,16.6-2.3,23.2c-6.3,5.5-14,8.1-22.2,9
	c-11.8,1.3-23.3-0.1-33.4-6.9c-5.7-3.9-10-9-8.8-16.5c0.4-2.9,2.4-5.6,3.5-8.4c0.6-1.5,1.5-3,1.6-4.5c0.2-6.3,0.1-12.6,0.1-19.8
	c3.5,4.2,6.6,7.6,9.3,11.3c2.1,2.8,4,3.8,7.7,2.7c9.2-2.7,18.6-2.3,27.8,0.3c2.1,0.6,3.3,0.1,4.6-1.5c3.2-4,6.6-7.9,10-11.9
	C256.7,18.9,256.9,19,257.2,19.2z"/>
<path d="M438.1,379.9c0,7-0.1,13.1,0.1,19.3c0.1,1.6,0.6,3.6,1.6,4.9c5.7,7.4,5.1,16-1.9,22.3c-8.6,7.8-19.1,10-30.2,10
	c-9.6,0-18.8-2-26.8-7.9c-8.1-5.9-11.9-15.5-3.9-25.1c0.8-0.9,1.1-2.5,1.1-3.8c0.1-6.2,0.1-12.5,0.1-19.7c3.9,4.7,7.3,8.6,10.5,12.6
	c1.4,1.7,2.6,2.2,4.8,1.6c9.8-2.8,19.8-2.7,29.6,0.1c1.8,0.5,2.9,0.2,4.1-1.2C430.6,388.7,434.1,384.7,438.1,379.9z"/>
<path d="M287.5,831c3.6,4.3,7.1,8.3,10.4,12.4c1.2,1.5,2.2,1.7,4.1,1.2c10-2.8,20-2.9,29.9,0c1.8,0.5,2.9,0.3,4.1-1.2
	c3.3-4.1,6.8-8.2,10.6-12.7c0.2,1.3,0.3,2,0.3,2.8c0,3.5,0.1,7,0,10.5c-0.1,4.7,0.2,8.9,3.2,13.1c5.5,7.6,1.6,16.4-5.9,21.7
	c-10.8,7.6-23,9-35.7,7.3c-8-1.1-15.3-3.8-21.3-9.4c-7.1-6.6-7.7-14.8-1.7-22.5c0.8-1.1,1.4-2.6,1.4-4c0.2-6.1,0.1-12.1,0.1-18.2
	C287.1,831.9,287.2,831.7,287.5,831z"/>
<path d="M548,958.3c1.7,0,3.3,0,5.4,0c0.1-4.9,1.9-9.1,5.1-12.7c0.5-0.6,0.5-1.8,0.5-2.7c0-5.2,0-10.4,0-15.7c0-1.1,0.1-2.2,0.2-4.1
	c3.8,4.5,7.2,8.4,10.4,12.4c1.3,1.6,2.4,2.2,4.6,1.6c10-2.9,20-2.9,29.9,0.1c1.7,0.5,2.7,0.2,3.8-1.2c3.4-4.2,6.9-8.2,11-13.1
	c0,6.8,0.1,12.7,0,18.7c0,2.4,0.5,4.2,2.1,6.1c5.6,6.9,4.5,15.7-2.5,21.9c-7.9,7-17.5,9.4-27.8,9.7c-9.8,0.3-19.1-1.6-27.5-6.8
	c-4.1-2.6-7.6-5.8-8.8-10.5c-0.8-2.9-2.2-3.8-4.9-3.4c-0.5,0.1-1.1,0-1.6,0C548,958.4,548,958.3,548,958.3z"/>
<path d="M559.8,18.8c3.3,3.9,6.6,7.7,9.8,11.7c1.3,1.7,2.5,2.3,4.8,1.7c9.7-2.8,19.6-2.8,29.3,0c2,0.6,3.2,0.4,4.6-1.4
	c3.2-4.1,6.6-8,10.4-12.4c0.1,1.5,0.3,2.4,0.3,3.3c0,4.8,0.1,9.6,0,14.4c-0.1,2.7,0.5,4.8,2.3,7c6.1,7.8,3.7,17.8-5.6,24
	c-10.2,6.8-21.5,8.2-33.4,7c-7.6-0.8-14.8-3.2-21-7.9c-9-6.9-10.1-15.7-3.3-24.7c0.7-1,1-2.5,1.1-3.8c0.1-6.2,0-12.3,0-18.5
	C559.4,19,559.6,18.9,559.8,18.8z"/>
<path d="M559.9,199.8c3.4,4.1,6.8,8.1,10.2,12.2c1,1.3,2,1.7,3.8,1.2c10.2-2.9,20.4-2.9,30.6,0c1.8,0.5,2.7,0,3.7-1.3
	c3.3-4.1,6.8-8.1,10.9-13c0,5.6,0.1,10.2,0,14.8c-0.1,4.2,0.4,7.8,3.1,11.6c5.3,7.4,2.4,16.6-6.2,22.5c-9.9,6.7-21.1,8.3-32.7,7.2
	c-8.8-0.8-16.9-3.4-23.6-9.5c-7.3-6.7-8-14.9-2-22.8c0.8-1.1,1.4-2.6,1.4-4c0.1-6.3,0.1-12.5,0.1-18.8
	C559.4,199.9,559.6,199.8,559.9,199.8z"/>
<path d="M106.8,107.4c3.4,4,6.8,7.9,10,12c1.3,1.6,2.4,2,4.3,1.4c10-2.9,20-2.9,29.9,0c1.9,0.5,2.9,0.1,4.1-1.3
	c3.3-4.1,6.8-8.1,10.9-11.9c0,5.5,0.1,11,0,16.4c-0.1,3,0.6,5.4,2.5,7.9c5.5,7.2,3.6,16.6-4.4,22.6c-8.9,6.7-19.3,8.8-30.1,8.4
	c-9.3-0.3-18.1-2.5-25.7-8.3c-7.7-5.9-11.1-15.6-3.2-24.7c0.7-0.8,1-2.3,1-3.5c0.1-6.3,0-12.5,0-18.8
	C106.3,107.5,106.6,107.4,106.8,107.4z"/>
<path d="M166,468.5c0,7.2-0.1,13.3,0,19.5c0,1.3,0.3,2.9,1.1,3.8c7.8,9.2,4.7,18.8-3.7,25.1c-5,3.7-10.6,5.9-16.7,6.9
	c-13.2,2.3-25.9,1.2-37.4-6.5c-7.3-4.9-10.3-12.1-8.2-18.7c0.5-1.7,1.2-3.6,2.4-4.8c2.4-2.4,2.5-5.1,2.5-8.2c-0.1-5.4,0-10.8,0-17.1
	c4.1,4.9,7.7,8.9,11,13.1c1.1,1.4,2.1,1.7,3.8,1.2c10.2-3,20.4-2.8,30.6-0.1c1,0.3,2.7-0.3,3.4-1.1
	C158.5,477.6,161.9,473.4,166,468.5z"/>
<path d="M106.7,650.3c3.4,4,6.9,8,10.2,12.1c1.2,1.4,2.1,1.9,4,1.3c10.1-2.9,20.2-2.9,30.3,0c1.8,0.5,2.7,0.1,3.8-1.2
	c3.4-4.1,6.8-8.2,10.6-12.7c0.2,1.2,0.4,2,0.4,2.8c0,3.7,0,7.5,0,11.2c0,4.3,0,8.2,3.2,12.2c4.1,5.1,3.1,12.1-1.1,17.4
	c-5.5,6.8-13.2,10-21.5,11.4c-13.3,2.4-26.2,1.1-37.6-6.9c-8.1-5.7-12-15.6-3.9-25c0.8-0.9,1.1-2.5,1.1-3.8c0.1-6.2,0-12.3,0-18.5
	C106.3,650.5,106.5,650.4,106.7,650.3z"/>
<path d="M106.8,288.3c3.5,4.1,6.9,8.3,10.5,12.3c0.7,0.8,2.4,1.4,3.4,1.1c10.2-2.8,20.4-2.8,30.6,0c1.1,0.3,2.9-0.4,3.7-1.2
	c3.6-3.9,6.9-8,10.7-12.6c0.1,1.5,0.3,2.3,0.3,3.2c0,4.2,0.2,8.3,0,12.5c-0.2,3.7,0.5,6.8,2.9,10c5.1,6.9,2.9,15.8-4.7,21.8
	c-6,4.7-12.9,7.1-20.3,8c-12,1.5-23.7,0.2-34-6.7c-5.8-3.8-10.1-8.9-9.1-16.3c0.4-3,2.4-5.8,3.6-8.7c0.7-1.6,1.6-3.2,1.6-4.9
	c0.2-6.1,0.1-12.1,0.1-18.2C106.3,288.5,106.5,288.4,106.8,288.3z"/>
<path d="M559.9,742.8c3.3,4,6.7,7.9,10,12c1.2,1.5,2.3,2,4.3,1.4c9.8-2.9,19.8-2.9,29.6-0.1c1.9,0.5,3,0.4,4.3-1.3
	c3.3-4.1,6.8-8.1,10.9-12.8c0,6.5,0.1,12.1,0,17.7c0,2.7,0.4,5,2.3,7.3c4.8,6,4.4,13.3-0.5,19.3c-3.7,4.5-8.6,7.3-14,9.1
	c-14.8,4.7-29.2,4.3-42.9-3.7c-6.4-3.7-11-9.1-10.1-17c0.3-2.9,2.3-5.5,3.5-8.3c0.7-1.8,1.7-3.6,1.8-5.5c0.2-5.9,0.1-11.9,0.1-17.8
	C559.4,742.9,559.6,742.8,559.9,742.8z"/>
<path d="M166,831.6c0,6.2-0.1,12.4,0.1,18.5c0,1.3,0.4,2.8,1.1,3.8c7.6,9,4.9,18.5-3.4,24.6c-10.8,8-23.3,9.4-36.3,7.6
	c-8-1.1-15.3-3.8-21.3-9.4c-7.1-6.7-7.5-14.9-1.5-22.5c0.8-1.1,1.3-2.7,1.3-4c0.1-6.3,0.1-12.5,0.1-19.7c4.1,4.8,7.6,8.8,11,13
	c1.2,1.5,2.2,1.7,4,1.2c9.9-2.9,19.8-2.9,29.7-0.1c2.1,0.6,3.3,0.2,4.6-1.4c3.3-4,6.6-8,10-11.9C165.5,831.4,165.8,831.5,166,831.6z
	"/>
<path d="M559.1,560.9c3.9,4.6,7.2,8.4,10.3,12.3c1.5,1.8,2.7,2.5,5.3,1.8c9.7-2.7,19.6-2.7,29.3,0.2c1.8,0.5,2.9,0.2,4.1-1.3
	c3.3-4.1,6.8-8.1,10.9-13c0,5.9,0.1,10.8,0,15.8c-0.1,3.7,0.4,6.8,2.8,10c4.8,6.4,3.7,13.9-2.2,19.9c-6.1,6.2-13.9,9-22.3,10.1
	c-12.6,1.6-24.7,0.3-35.4-7.3c-5.2-3.7-8.4-8.6-8.3-15.3c0-3.3,1.6-5.7,3.4-8c1.7-2.2,2.3-4.3,2.2-7
	C559,573.3,559.1,567.5,559.1,560.9z"/>
<path d="M559.6,380.5c3.6,4.3,7,8.2,10.3,12.3c1.2,1.5,2.2,2,4.3,1.4c9.8-2.9,19.8-2.9,29.6-0.1c2.1,0.6,3.2,0.3,4.6-1.4
	c3.2-4.1,6.6-8,10.7-12.8c0,6,0.1,11,0,16c-0.1,3.6,0.5,6.6,2.7,9.8c2.1,3,3.8,7.2,3.3,10.6c-0.5,3.5-3.5,7-6.1,9.9
	c-3.9,4.4-9.3,6.7-15,8.1c-13.1,3.4-26,2.9-38.2-3.5c-3.1-1.7-6-4.1-8.4-6.8c-5.2-6.1-5-13.2-0.2-19.6c1.1-1.5,1.8-3.6,1.9-5.4
	c0.3-5.7,0.1-11.5,0.2-17.3C559.2,381.5,559.3,381.3,559.6,380.5z"/>
</svg>
