<?xml version="1.0" encoding="utf-8"?>
<!-- Generator: Adobe Illustrator 23.0.0, SVG Export Plug-In . SVG Version: 6.00 Build 0)  -->
<svg version="1.1" id="Layer_1" xmlns="http://www.w3.org/2000/svg" xmlns:xlink="http://www.w3.org/1999/xlink" x="0px" y="0px"
	 viewBox="0 0 1483.3 612" style="enable-background:new 0 0 1483.3 612;" xml:space="preserve">
<style type="text/css">
	.st0{opacity:0.2;}
	.st1{clip-path:url(#SVGID_2_);}
	.st2{fill:none;stroke:#333333;stroke-width:4.115;stroke-linecap:round;stroke-miterlimit:10;}
</style>
<g class="st0">
	<defs>
		<rect id="SVGID_1_" class="st0" width="1483.3" height="612"/>
	</defs>
	<clipPath id="SVGID_2_">
		<use xlink:href="#SVGID_1_"  style="overflow:visible;"/>
	</clipPath>
	<g class="st1">
		<g>
			<g>
				<line class="st2" x1="-58" y1="-215.3" x2="-58" y2="-123.3"/>
				<line class="st2" x1="58.1" y1="-215.3" x2="58.1" y2="-123.3"/>
				<line class="st2" x1="-38.7" y1="-224.5" x2="-38.7" y2="-114"/>
				<line class="st2" x1="-19.3" y1="-237.1" x2="-19.3" y2="-101.4"/>
				<line class="st2" x1="0" y1="-242.8" x2="0" y2="-95.7"/>
				<line class="st2" x1="19.4" y1="-237.1" x2="19.4" y2="-101.4"/>
				<line class="st2" x1="38.7" y1="-224.5" x2="38.7" y2="-114"/>
			</g>
			<g>
				<g>
					<line class="st2" x1="83" y1="-367.3" x2="4.1" y2="-320.1"/>
					<line class="st2" x1="142.7" y1="-267.7" x2="63.7" y2="-220.4"/>
					<line class="st2" x1="100.9" y1="-355.4" x2="6.1" y2="-298.7"/>
					<line class="st2" x1="121.7" y1="-345.3" x2="5.2" y2="-275.6"/>
					<line class="st2" x1="136.5" y1="-331.6" x2="10.3" y2="-256.1"/>
					<line class="st2" x1="141.6" y1="-312.1" x2="25.1" y2="-242.4"/>
					<line class="st2" x1="140.6" y1="-289" x2="45.9" y2="-232.3"/>
				</g>
				<g>
					<line class="st2" x1="-83" y1="-367.3" x2="-4.1" y2="-320.1"/>
					<line class="st2" x1="-142.6" y1="-267.7" x2="-63.7" y2="-220.4"/>
					<line class="st2" x1="-100.8" y1="-355.4" x2="-6.1" y2="-298.7"/>
					<line class="st2" x1="-121.7" y1="-345.3" x2="-5.1" y2="-275.6"/>
					<line class="st2" x1="-136.4" y1="-331.6" x2="-10.3" y2="-256.1"/>
					<line class="st2" x1="-141.5" y1="-312.1" x2="-25" y2="-242.4"/>
					<line class="st2" x1="-140.6" y1="-289" x2="-45.8" y2="-232.3"/>
				</g>
			</g>
		</g>
		<g>
			<g>
				<line class="st2" x1="154.6" y1="-92" x2="154.6" y2="0"/>
				<line class="st2" x1="270.7" y1="-92" x2="270.7" y2="0"/>
				<line class="st2" x1="173.9" y1="-101.2" x2="173.9" y2="9.2"/>
				<line class="st2" x1="193.3" y1="-113.9" x2="193.3" y2="21.9"/>
				<line class="st2" x1="212.6" y1="-119.5" x2="212.6" y2="27.5"/>
				<line class="st2" x1="232" y1="-113.9" x2="232" y2="21.9"/>
				<line class="st2" x1="251.3" y1="-101.2" x2="251.3" y2="9.2"/>
			</g>
			<g>
				<g>
					<line class="st2" x1="295.6" y1="-244.1" x2="216.7" y2="-196.8"/>
					<line class="st2" x1="355.3" y1="-144.4" x2="276.3" y2="-97.2"/>
					<line class="st2" x1="313.5" y1="-232.2" x2="218.7" y2="-175.5"/>
					<line class="st2" x1="334.3" y1="-222.1" x2="217.8" y2="-152.4"/>
					<line class="st2" x1="349.1" y1="-208.4" x2="222.9" y2="-132.9"/>
					<line class="st2" x1="354.2" y1="-188.9" x2="237.7" y2="-119.2"/>
					<line class="st2" x1="353.2" y1="-165.8" x2="258.5" y2="-109.1"/>
				</g>
				<g>
					<line class="st2" x1="129.6" y1="-244.1" x2="208.5" y2="-196.8"/>
					<line class="st2" x1="70" y1="-144.4" x2="148.9" y2="-97.2"/>
					<line class="st2" x1="111.8" y1="-232.2" x2="206.5" y2="-175.5"/>
					<line class="st2" x1="90.9" y1="-222.1" x2="207.5" y2="-152.4"/>
					<line class="st2" x1="76.2" y1="-208.4" x2="202.4" y2="-132.9"/>
					<line class="st2" x1="71.1" y1="-188.9" x2="187.6" y2="-119.2"/>
					<line class="st2" x1="72" y1="-165.8" x2="166.8" y2="-109.1"/>
				</g>
			</g>
		</g>
	</g>
	<g class="st1">
		<g>
			<g>
				<line class="st2" x1="365.5" y1="-215.3" x2="365.5" y2="-123.3"/>
				<line class="st2" x1="481.6" y1="-215.3" x2="481.6" y2="-123.3"/>
				<line class="st2" x1="384.9" y1="-224.5" x2="384.9" y2="-114"/>
				<line class="st2" x1="404.2" y1="-237.1" x2="404.2" y2="-101.4"/>
				<line class="st2" x1="423.6" y1="-242.8" x2="423.6" y2="-95.7"/>
				<line class="st2" x1="442.9" y1="-237.1" x2="442.9" y2="-101.4"/>
				<line class="st2" x1="462.3" y1="-224.5" x2="462.3" y2="-114"/>
			</g>
			<g>
				<g>
					<line class="st2" x1="506.6" y1="-367.3" x2="427.7" y2="-320.1"/>
					<line class="st2" x1="566.2" y1="-267.7" x2="487.3" y2="-220.4"/>
					<line class="st2" x1="524.4" y1="-355.4" x2="429.7" y2="-298.7"/>
					<line class="st2" x1="545.3" y1="-345.3" x2="428.8" y2="-275.6"/>
					<line class="st2" x1="560" y1="-331.6" x2="433.9" y2="-256.1"/>
					<line class="st2" x1="565.1" y1="-312.1" x2="448.6" y2="-242.4"/>
					<line class="st2" x1="564.2" y1="-289" x2="469.4" y2="-232.3"/>
				</g>
				<g>
					<line class="st2" x1="340.6" y1="-367.3" x2="419.5" y2="-320.1"/>
					<line class="st2" x1="280.9" y1="-267.7" x2="359.9" y2="-220.4"/>
					<line class="st2" x1="322.7" y1="-355.4" x2="417.5" y2="-298.7"/>
					<line class="st2" x1="301.9" y1="-345.3" x2="418.4" y2="-275.6"/>
					<line class="st2" x1="287.1" y1="-331.6" x2="413.3" y2="-256.1"/>
					<line class="st2" x1="282" y1="-312.1" x2="398.5" y2="-242.4"/>
					<line class="st2" x1="283" y1="-289" x2="377.7" y2="-232.3"/>
				</g>
			</g>
		</g>
		<g>
			<g>
				<line class="st2" x1="578.1" y1="-92" x2="578.1" y2="0"/>
				<line class="st2" x1="694.2" y1="-92" x2="694.2" y2="0"/>
				<line class="st2" x1="597.5" y1="-101.2" x2="597.5" y2="9.2"/>
				<line class="st2" x1="616.8" y1="-113.9" x2="616.8" y2="21.9"/>
				<line class="st2" x1="636.2" y1="-119.5" x2="636.2" y2="27.5"/>
				<line class="st2" x1="655.5" y1="-113.9" x2="655.5" y2="21.9"/>
				<line class="st2" x1="674.9" y1="-101.2" x2="674.9" y2="9.2"/>
			</g>
			<g>
				<g>
					<line class="st2" x1="719.2" y1="-244.1" x2="640.3" y2="-196.8"/>
					<line class="st2" x1="778.8" y1="-144.4" x2="699.9" y2="-97.2"/>
					<line class="st2" x1="737" y1="-232.2" x2="642.3" y2="-175.5"/>
					<line class="st2" x1="757.9" y1="-222.1" x2="641.4" y2="-152.4"/>
					<line class="st2" x1="772.6" y1="-208.4" x2="646.5" y2="-132.9"/>
					<line class="st2" x1="777.7" y1="-188.9" x2="661.2" y2="-119.2"/>
					<line class="st2" x1="776.8" y1="-165.8" x2="682.1" y2="-109.1"/>
				</g>
				<g>
					<line class="st2" x1="553.2" y1="-244.1" x2="632.1" y2="-196.8"/>
					<line class="st2" x1="493.6" y1="-144.4" x2="572.5" y2="-97.2"/>
					<line class="st2" x1="535.3" y1="-232.2" x2="630.1" y2="-175.5"/>
					<line class="st2" x1="514.5" y1="-222.1" x2="631" y2="-152.4"/>
					<line class="st2" x1="499.7" y1="-208.4" x2="625.9" y2="-132.9"/>
					<line class="st2" x1="494.6" y1="-188.9" x2="611.2" y2="-119.2"/>
					<line class="st2" x1="495.6" y1="-165.8" x2="590.3" y2="-109.1"/>
				</g>
			</g>
		</g>
	</g>
	<g class="st1">
		<g>
			<g>
				<line class="st2" x1="789.1" y1="-215.3" x2="789.1" y2="-123.3"/>
				<line class="st2" x1="905.2" y1="-215.3" x2="905.2" y2="-123.3"/>
				<line class="st2" x1="808.5" y1="-224.5" x2="808.5" y2="-114"/>
				<line class="st2" x1="827.8" y1="-237.1" x2="827.8" y2="-101.4"/>
				<line class="st2" x1="847.2" y1="-242.8" x2="847.2" y2="-95.7"/>
				<line class="st2" x1="866.5" y1="-237.1" x2="866.5" y2="-101.4"/>
				<line class="st2" x1="885.9" y1="-224.5" x2="885.9" y2="-114"/>
			</g>
			<g>
				<g>
					<line class="st2" x1="930.2" y1="-367.3" x2="851.2" y2="-320.1"/>
					<line class="st2" x1="989.8" y1="-267.7" x2="910.9" y2="-220.4"/>
					<line class="st2" x1="948" y1="-355.4" x2="853.3" y2="-298.7"/>
					<line class="st2" x1="968.8" y1="-345.3" x2="852.3" y2="-275.6"/>
					<line class="st2" x1="983.6" y1="-331.6" x2="857.4" y2="-256.1"/>
					<line class="st2" x1="988.7" y1="-312.1" x2="872.2" y2="-242.4"/>
					<line class="st2" x1="987.8" y1="-289" x2="893" y2="-232.3"/>
				</g>
				<g>
					<line class="st2" x1="764.1" y1="-367.3" x2="843.1" y2="-320.1"/>
					<line class="st2" x1="704.5" y1="-267.7" x2="783.5" y2="-220.4"/>
					<line class="st2" x1="746.3" y1="-355.4" x2="841" y2="-298.7"/>
					<line class="st2" x1="725.5" y1="-345.3" x2="842" y2="-275.6"/>
					<line class="st2" x1="710.7" y1="-331.6" x2="836.9" y2="-256.1"/>
					<line class="st2" x1="705.6" y1="-312.1" x2="822.1" y2="-242.4"/>
					<line class="st2" x1="706.6" y1="-289" x2="801.3" y2="-232.3"/>
				</g>
			</g>
		</g>
		<g>
			<g>
				<line class="st2" x1="1001.7" y1="-92" x2="1001.7" y2="0"/>
				<line class="st2" x1="1117.8" y1="-92" x2="1117.8" y2="0"/>
				<line class="st2" x1="1021.1" y1="-101.2" x2="1021.1" y2="9.2"/>
				<line class="st2" x1="1040.4" y1="-113.9" x2="1040.4" y2="21.9"/>
				<line class="st2" x1="1059.8" y1="-119.5" x2="1059.8" y2="27.5"/>
				<line class="st2" x1="1079.1" y1="-113.9" x2="1079.1" y2="21.9"/>
				<line class="st2" x1="1098.5" y1="-101.2" x2="1098.5" y2="9.2"/>
			</g>
			<g>
				<g>
					<line class="st2" x1="1142.8" y1="-244.1" x2="1063.8" y2="-196.8"/>
					<line class="st2" x1="1202.4" y1="-144.4" x2="1123.5" y2="-97.2"/>
					<line class="st2" x1="1160.6" y1="-232.2" x2="1065.9" y2="-175.5"/>
					<line class="st2" x1="1181.4" y1="-222.1" x2="1064.9" y2="-152.4"/>
					<line class="st2" x1="1196.2" y1="-208.4" x2="1070" y2="-132.9"/>
					<line class="st2" x1="1201.3" y1="-188.9" x2="1084.8" y2="-119.2"/>
					<line class="st2" x1="1200.4" y1="-165.8" x2="1105.6" y2="-109.1"/>
				</g>
				<g>
					<line class="st2" x1="976.7" y1="-244.1" x2="1055.7" y2="-196.8"/>
					<line class="st2" x1="917.1" y1="-144.4" x2="996.1" y2="-97.2"/>
					<line class="st2" x1="958.9" y1="-232.2" x2="1053.7" y2="-175.5"/>
					<line class="st2" x1="938.1" y1="-222.1" x2="1054.6" y2="-152.4"/>
					<line class="st2" x1="923.3" y1="-208.4" x2="1049.5" y2="-132.9"/>
					<line class="st2" x1="918.2" y1="-188.9" x2="1034.7" y2="-119.2"/>
					<line class="st2" x1="919.2" y1="-165.8" x2="1013.9" y2="-109.1"/>
				</g>
			</g>
		</g>
	</g>
	<g class="st1">
		<g>
			<g>
				<line class="st2" x1="1212.7" y1="-215.3" x2="1212.7" y2="-123.3"/>
				<line class="st2" x1="1328.8" y1="-215.3" x2="1328.8" y2="-123.3"/>
				<line class="st2" x1="1232" y1="-224.5" x2="1232" y2="-114"/>
				<line class="st2" x1="1251.4" y1="-237.1" x2="1251.4" y2="-101.4"/>
				<line class="st2" x1="1270.7" y1="-242.8" x2="1270.7" y2="-95.7"/>
				<line class="st2" x1="1290.1" y1="-237.1" x2="1290.1" y2="-101.4"/>
				<line class="st2" x1="1309.4" y1="-224.5" x2="1309.4" y2="-114"/>
			</g>
			<g>
				<g>
					<line class="st2" x1="1353.7" y1="-367.3" x2="1274.8" y2="-320.1"/>
					<line class="st2" x1="1413.4" y1="-267.7" x2="1334.4" y2="-220.4"/>
					<line class="st2" x1="1371.6" y1="-355.4" x2="1276.8" y2="-298.7"/>
					<line class="st2" x1="1392.4" y1="-345.3" x2="1275.9" y2="-275.6"/>
					<line class="st2" x1="1407.2" y1="-331.6" x2="1281" y2="-256.1"/>
					<line class="st2" x1="1412.3" y1="-312.1" x2="1295.8" y2="-242.4"/>
					<line class="st2" x1="1411.3" y1="-289" x2="1316.6" y2="-232.3"/>
				</g>
				<g>
					<line class="st2" x1="1187.7" y1="-367.3" x2="1266.7" y2="-320.1"/>
					<line class="st2" x1="1128.1" y1="-267.7" x2="1207" y2="-220.4"/>
					<line class="st2" x1="1169.9" y1="-355.4" x2="1264.6" y2="-298.7"/>
					<line class="st2" x1="1149.1" y1="-345.3" x2="1265.6" y2="-275.6"/>
					<line class="st2" x1="1134.3" y1="-331.6" x2="1260.5" y2="-256.1"/>
					<line class="st2" x1="1129.2" y1="-312.1" x2="1245.7" y2="-242.4"/>
					<line class="st2" x1="1130.1" y1="-289" x2="1224.9" y2="-232.3"/>
				</g>
			</g>
		</g>
		<g>
			<g>
				<line class="st2" x1="1425.3" y1="-92" x2="1425.3" y2="0"/>
				<line class="st2" x1="1541.4" y1="-92" x2="1541.4" y2="0"/>
				<line class="st2" x1="1444.6" y1="-101.2" x2="1444.6" y2="9.2"/>
				<line class="st2" x1="1464" y1="-113.9" x2="1464" y2="21.9"/>
				<line class="st2" x1="1483.3" y1="-119.5" x2="1483.3" y2="27.5"/>
				<line class="st2" x1="1502.7" y1="-113.9" x2="1502.7" y2="21.9"/>
				<line class="st2" x1="1522" y1="-101.2" x2="1522" y2="9.2"/>
			</g>
			<g>
				<g>
					<line class="st2" x1="1566.4" y1="-244.1" x2="1487.4" y2="-196.8"/>
					<line class="st2" x1="1626" y1="-144.4" x2="1547" y2="-97.2"/>
					<line class="st2" x1="1584.2" y1="-232.2" x2="1489.4" y2="-175.5"/>
					<line class="st2" x1="1605" y1="-222.1" x2="1488.5" y2="-152.4"/>
					<line class="st2" x1="1619.8" y1="-208.4" x2="1493.6" y2="-132.9"/>
					<line class="st2" x1="1624.9" y1="-188.9" x2="1508.4" y2="-119.2"/>
					<line class="st2" x1="1623.9" y1="-165.8" x2="1529.2" y2="-109.1"/>
				</g>
				<g>
					<line class="st2" x1="1400.3" y1="-244.1" x2="1479.3" y2="-196.8"/>
					<line class="st2" x1="1340.7" y1="-144.4" x2="1419.6" y2="-97.2"/>
					<line class="st2" x1="1382.5" y1="-232.2" x2="1477.2" y2="-175.5"/>
					<line class="st2" x1="1361.7" y1="-222.1" x2="1478.2" y2="-152.4"/>
					<line class="st2" x1="1346.9" y1="-208.4" x2="1473.1" y2="-132.9"/>
					<line class="st2" x1="1341.8" y1="-188.9" x2="1458.3" y2="-119.2"/>
					<line class="st2" x1="1342.7" y1="-165.8" x2="1437.5" y2="-109.1"/>
				</g>
			</g>
		</g>
	</g>
	<g class="st1">
		<g>
			<g>
				<line class="st2" x1="-58" y1="28.8" x2="-58" y2="120.8"/>
				<line class="st2" x1="58.1" y1="28.8" x2="58.1" y2="120.8"/>
				<line class="st2" x1="-38.7" y1="19.6" x2="-38.7" y2="130"/>
				<line class="st2" x1="-19.3" y1="6.9" x2="-19.3" y2="142.7"/>
				<line class="st2" x1="0" y1="1.3" x2="0" y2="148.3"/>
				<line class="st2" x1="19.4" y1="6.9" x2="19.4" y2="142.7"/>
				<line class="st2" x1="38.7" y1="19.6" x2="38.7" y2="130"/>
			</g>
			<g>
				<g>
					<line class="st2" x1="83" y1="-123.3" x2="4.1" y2="-76"/>
					<line class="st2" x1="142.7" y1="-23.6" x2="63.7" y2="23.6"/>
					<line class="st2" x1="100.9" y1="-111.4" x2="6.1" y2="-54.7"/>
					<line class="st2" x1="121.7" y1="-101.3" x2="5.2" y2="-31.6"/>
					<line class="st2" x1="136.5" y1="-87.6" x2="10.3" y2="-12.1"/>
					<line class="st2" x1="141.6" y1="-68.1" x2="25.1" y2="1.7"/>
					<line class="st2" x1="140.6" y1="-45" x2="45.9" y2="11.7"/>
				</g>
				<g>
					<line class="st2" x1="-83" y1="-123.3" x2="-4.1" y2="-76"/>
					<line class="st2" x1="-142.6" y1="-23.6" x2="-63.7" y2="23.6"/>
					<line class="st2" x1="-100.8" y1="-111.4" x2="-6.1" y2="-54.7"/>
					<line class="st2" x1="-121.7" y1="-101.3" x2="-5.1" y2="-31.6"/>
					<line class="st2" x1="-136.4" y1="-87.6" x2="-10.3" y2="-12.1"/>
					<line class="st2" x1="-141.5" y1="-68.1" x2="-25" y2="1.7"/>
					<line class="st2" x1="-140.6" y1="-45" x2="-45.8" y2="11.7"/>
				</g>
			</g>
		</g>
		<g>
			<g>
				<line class="st2" x1="154.6" y1="152.1" x2="154.6" y2="244.1"/>
				<line class="st2" x1="270.7" y1="152.1" x2="270.7" y2="244.1"/>
				<line class="st2" x1="173.9" y1="142.8" x2="173.9" y2="253.3"/>
				<line class="st2" x1="193.3" y1="130.2" x2="193.3" y2="265.9"/>
				<line class="st2" x1="212.6" y1="124.5" x2="212.6" y2="271.6"/>
				<line class="st2" x1="232" y1="130.2" x2="232" y2="265.9"/>
				<line class="st2" x1="251.3" y1="142.8" x2="251.3" y2="253.3"/>
			</g>
			<g>
				<g>
					<line class="st2" x1="295.6" y1="0" x2="216.7" y2="47.2"/>
					<line class="st2" x1="355.3" y1="99.6" x2="276.3" y2="146.9"/>
					<line class="st2" x1="313.5" y1="11.9" x2="218.7" y2="68.6"/>
					<line class="st2" x1="334.3" y1="22" x2="217.8" y2="91.7"/>
					<line class="st2" x1="349.1" y1="35.7" x2="222.9" y2="111.2"/>
					<line class="st2" x1="354.2" y1="55.2" x2="237.7" y2="124.9"/>
					<line class="st2" x1="353.2" y1="78.3" x2="258.5" y2="135"/>
				</g>
				<g>
					<line class="st2" x1="129.6" y1="0" x2="208.5" y2="47.2"/>
					<line class="st2" x1="70" y1="99.6" x2="148.9" y2="146.9"/>
					<line class="st2" x1="111.8" y1="11.9" x2="206.5" y2="68.6"/>
					<line class="st2" x1="90.9" y1="22" x2="207.5" y2="91.7"/>
					<line class="st2" x1="76.2" y1="35.7" x2="202.4" y2="111.2"/>
					<line class="st2" x1="71.1" y1="55.2" x2="187.6" y2="124.9"/>
					<line class="st2" x1="72" y1="78.3" x2="166.8" y2="135"/>
				</g>
			</g>
		</g>
	</g>
	<g class="st1">
		<g>
			<g>
				<line class="st2" x1="365.5" y1="28.8" x2="365.5" y2="120.8"/>
				<line class="st2" x1="481.6" y1="28.8" x2="481.6" y2="120.8"/>
				<line class="st2" x1="384.9" y1="19.6" x2="384.9" y2="130"/>
				<line class="st2" x1="404.2" y1="6.9" x2="404.2" y2="142.7"/>
				<line class="st2" x1="423.6" y1="1.3" x2="423.6" y2="148.3"/>
				<line class="st2" x1="442.9" y1="6.9" x2="442.9" y2="142.7"/>
				<line class="st2" x1="462.3" y1="19.6" x2="462.3" y2="130"/>
			</g>
			<g>
				<g>
					<line class="st2" x1="506.6" y1="-123.3" x2="427.7" y2="-76"/>
					<line class="st2" x1="566.2" y1="-23.6" x2="487.3" y2="23.6"/>
					<line class="st2" x1="524.4" y1="-111.4" x2="429.7" y2="-54.7"/>
					<line class="st2" x1="545.3" y1="-101.3" x2="428.8" y2="-31.6"/>
					<line class="st2" x1="560" y1="-87.6" x2="433.9" y2="-12.1"/>
					<line class="st2" x1="565.1" y1="-68.1" x2="448.6" y2="1.7"/>
					<line class="st2" x1="564.2" y1="-45" x2="469.4" y2="11.7"/>
				</g>
				<g>
					<line class="st2" x1="340.6" y1="-123.3" x2="419.5" y2="-76"/>
					<line class="st2" x1="280.9" y1="-23.6" x2="359.9" y2="23.6"/>
					<line class="st2" x1="322.7" y1="-111.4" x2="417.5" y2="-54.7"/>
					<line class="st2" x1="301.9" y1="-101.3" x2="418.4" y2="-31.6"/>
					<line class="st2" x1="287.1" y1="-87.6" x2="413.3" y2="-12.1"/>
					<line class="st2" x1="282" y1="-68.1" x2="398.5" y2="1.7"/>
					<line class="st2" x1="283" y1="-45" x2="377.7" y2="11.7"/>
				</g>
			</g>
		</g>
		<g>
			<g>
				<line class="st2" x1="578.1" y1="152.1" x2="578.1" y2="244.1"/>
				<line class="st2" x1="694.2" y1="152.1" x2="694.2" y2="244.1"/>
				<line class="st2" x1="597.5" y1="142.8" x2="597.5" y2="253.3"/>
				<line class="st2" x1="616.8" y1="130.2" x2="616.8" y2="265.9"/>
				<line class="st2" x1="636.2" y1="124.5" x2="636.2" y2="271.6"/>
				<line class="st2" x1="655.5" y1="130.2" x2="655.5" y2="265.9"/>
				<line class="st2" x1="674.9" y1="142.8" x2="674.9" y2="253.3"/>
			</g>
			<g>
				<g>
					<line class="st2" x1="719.2" y1="0" x2="640.3" y2="47.2"/>
					<line class="st2" x1="778.8" y1="99.6" x2="699.9" y2="146.9"/>
					<line class="st2" x1="737" y1="11.9" x2="642.3" y2="68.6"/>
					<line class="st2" x1="757.9" y1="22" x2="641.4" y2="91.7"/>
					<line class="st2" x1="772.6" y1="35.7" x2="646.5" y2="111.2"/>
					<line class="st2" x1="777.7" y1="55.2" x2="661.2" y2="124.9"/>
					<line class="st2" x1="776.8" y1="78.3" x2="682.1" y2="135"/>
				</g>
				<g>
					<line class="st2" x1="553.2" y1="0" x2="632.1" y2="47.2"/>
					<line class="st2" x1="493.6" y1="99.6" x2="572.5" y2="146.9"/>
					<line class="st2" x1="535.3" y1="11.9" x2="630.1" y2="68.6"/>
					<line class="st2" x1="514.5" y1="22" x2="631" y2="91.7"/>
					<line class="st2" x1="499.7" y1="35.7" x2="625.9" y2="111.2"/>
					<line class="st2" x1="494.6" y1="55.2" x2="611.2" y2="124.9"/>
					<line class="st2" x1="495.6" y1="78.3" x2="590.3" y2="135"/>
				</g>
			</g>
		</g>
	</g>
	<g class="st1">
		<g>
			<g>
				<line class="st2" x1="789.1" y1="28.8" x2="789.1" y2="120.8"/>
				<line class="st2" x1="905.2" y1="28.8" x2="905.2" y2="120.8"/>
				<line class="st2" x1="808.5" y1="19.6" x2="808.5" y2="130"/>
				<line class="st2" x1="827.8" y1="6.9" x2="827.8" y2="142.7"/>
				<line class="st2" x1="847.2" y1="1.3" x2="847.2" y2="148.3"/>
				<line class="st2" x1="866.5" y1="6.9" x2="866.5" y2="142.7"/>
				<line class="st2" x1="885.9" y1="19.6" x2="885.9" y2="130"/>
			</g>
			<g>
				<g>
					<line class="st2" x1="930.2" y1="-123.3" x2="851.2" y2="-76"/>
					<line class="st2" x1="989.8" y1="-23.6" x2="910.9" y2="23.6"/>
					<line class="st2" x1="948" y1="-111.4" x2="853.3" y2="-54.7"/>
					<line class="st2" x1="968.8" y1="-101.3" x2="852.3" y2="-31.6"/>
					<line class="st2" x1="983.6" y1="-87.6" x2="857.4" y2="-12.1"/>
					<line class="st2" x1="988.7" y1="-68.1" x2="872.2" y2="1.7"/>
					<line class="st2" x1="987.8" y1="-45" x2="893" y2="11.7"/>
				</g>
				<g>
					<line class="st2" x1="764.1" y1="-123.3" x2="843.1" y2="-76"/>
					<line class="st2" x1="704.5" y1="-23.6" x2="783.5" y2="23.6"/>
					<line class="st2" x1="746.3" y1="-111.4" x2="841" y2="-54.7"/>
					<line class="st2" x1="725.5" y1="-101.3" x2="842" y2="-31.6"/>
					<line class="st2" x1="710.7" y1="-87.6" x2="836.9" y2="-12.1"/>
					<line class="st2" x1="705.6" y1="-68.1" x2="822.1" y2="1.7"/>
					<line class="st2" x1="706.6" y1="-45" x2="801.3" y2="11.7"/>
				</g>
			</g>
		</g>
		<g>
			<g>
				<line class="st2" x1="1001.7" y1="152.1" x2="1001.7" y2="244.1"/>
				<line class="st2" x1="1117.8" y1="152.1" x2="1117.8" y2="244.1"/>
				<line class="st2" x1="1021.1" y1="142.8" x2="1021.1" y2="253.3"/>
				<line class="st2" x1="1040.4" y1="130.2" x2="1040.4" y2="265.9"/>
				<line class="st2" x1="1059.8" y1="124.5" x2="1059.8" y2="271.6"/>
				<line class="st2" x1="1079.1" y1="130.2" x2="1079.1" y2="265.9"/>
				<line class="st2" x1="1098.5" y1="142.8" x2="1098.5" y2="253.3"/>
			</g>
			<g>
				<g>
					<line class="st2" x1="1142.8" y1="0" x2="1063.8" y2="47.2"/>
					<line class="st2" x1="1202.4" y1="99.6" x2="1123.5" y2="146.9"/>
					<line class="st2" x1="1160.6" y1="11.9" x2="1065.9" y2="68.6"/>
					<line class="st2" x1="1181.4" y1="22" x2="1064.9" y2="91.7"/>
					<line class="st2" x1="1196.2" y1="35.7" x2="1070" y2="111.2"/>
					<line class="st2" x1="1201.3" y1="55.2" x2="1084.8" y2="124.9"/>
					<line class="st2" x1="1200.4" y1="78.3" x2="1105.6" y2="135"/>
				</g>
				<g>
					<line class="st2" x1="976.7" y1="0" x2="1055.7" y2="47.2"/>
					<line class="st2" x1="917.1" y1="99.6" x2="996.1" y2="146.9"/>
					<line class="st2" x1="958.9" y1="11.9" x2="1053.7" y2="68.6"/>
					<line class="st2" x1="938.1" y1="22" x2="1054.6" y2="91.7"/>
					<line class="st2" x1="923.3" y1="35.7" x2="1049.5" y2="111.2"/>
					<line class="st2" x1="918.2" y1="55.2" x2="1034.7" y2="124.9"/>
					<line class="st2" x1="919.2" y1="78.3" x2="1013.9" y2="135"/>
				</g>
			</g>
		</g>
	</g>
	<g class="st1">
		<g>
			<g>
				<line class="st2" x1="1212.7" y1="28.8" x2="1212.7" y2="120.8"/>
				<line class="st2" x1="1328.8" y1="28.8" x2="1328.8" y2="120.8"/>
				<line class="st2" x1="1232" y1="19.6" x2="1232" y2="130"/>
				<line class="st2" x1="1251.4" y1="6.9" x2="1251.4" y2="142.7"/>
				<line class="st2" x1="1270.7" y1="1.3" x2="1270.7" y2="148.3"/>
				<line class="st2" x1="1290.1" y1="6.9" x2="1290.1" y2="142.7"/>
				<line class="st2" x1="1309.4" y1="19.6" x2="1309.4" y2="130"/>
			</g>
			<g>
				<g>
					<line class="st2" x1="1353.7" y1="-123.3" x2="1274.8" y2="-76"/>
					<line class="st2" x1="1413.4" y1="-23.6" x2="1334.4" y2="23.6"/>
					<line class="st2" x1="1371.6" y1="-111.4" x2="1276.8" y2="-54.7"/>
					<line class="st2" x1="1392.4" y1="-101.3" x2="1275.9" y2="-31.6"/>
					<line class="st2" x1="1407.2" y1="-87.6" x2="1281" y2="-12.1"/>
					<line class="st2" x1="1412.3" y1="-68.1" x2="1295.8" y2="1.7"/>
					<line class="st2" x1="1411.3" y1="-45" x2="1316.6" y2="11.7"/>
				</g>
				<g>
					<line class="st2" x1="1187.7" y1="-123.3" x2="1266.7" y2="-76"/>
					<line class="st2" x1="1128.1" y1="-23.6" x2="1207" y2="23.6"/>
					<line class="st2" x1="1169.9" y1="-111.4" x2="1264.6" y2="-54.7"/>
					<line class="st2" x1="1149.1" y1="-101.3" x2="1265.6" y2="-31.6"/>
					<line class="st2" x1="1134.3" y1="-87.6" x2="1260.5" y2="-12.1"/>
					<line class="st2" x1="1129.2" y1="-68.1" x2="1245.7" y2="1.7"/>
					<line class="st2" x1="1130.1" y1="-45" x2="1224.9" y2="11.7"/>
				</g>
			</g>
		</g>
		<g>
			<g>
				<line class="st2" x1="1425.3" y1="152.1" x2="1425.3" y2="244.1"/>
				<line class="st2" x1="1541.4" y1="152.1" x2="1541.4" y2="244.1"/>
				<line class="st2" x1="1444.6" y1="142.8" x2="1444.6" y2="253.3"/>
				<line class="st2" x1="1464" y1="130.2" x2="1464" y2="265.9"/>
				<line class="st2" x1="1483.3" y1="124.5" x2="1483.3" y2="271.6"/>
				<line class="st2" x1="1502.7" y1="130.2" x2="1502.7" y2="265.9"/>
				<line class="st2" x1="1522" y1="142.8" x2="1522" y2="253.3"/>
			</g>
			<g>
				<g>
					<line class="st2" x1="1566.4" y1="0" x2="1487.4" y2="47.2"/>
					<line class="st2" x1="1626" y1="99.6" x2="1547" y2="146.9"/>
					<line class="st2" x1="1584.2" y1="11.9" x2="1489.4" y2="68.6"/>
					<line class="st2" x1="1605" y1="22" x2="1488.5" y2="91.7"/>
					<line class="st2" x1="1619.8" y1="35.7" x2="1493.6" y2="111.2"/>
					<line class="st2" x1="1624.9" y1="55.2" x2="1508.4" y2="124.9"/>
					<line class="st2" x1="1623.9" y1="78.3" x2="1529.2" y2="135"/>
				</g>
				<g>
					<line class="st2" x1="1400.3" y1="0" x2="1479.3" y2="47.2"/>
					<line class="st2" x1="1340.7" y1="99.6" x2="1419.6" y2="146.9"/>
					<line class="st2" x1="1382.5" y1="11.9" x2="1477.2" y2="68.6"/>
					<line class="st2" x1="1361.7" y1="22" x2="1478.2" y2="91.7"/>
					<line class="st2" x1="1346.9" y1="35.7" x2="1473.1" y2="111.2"/>
					<line class="st2" x1="1341.8" y1="55.2" x2="1458.3" y2="124.9"/>
					<line class="st2" x1="1342.7" y1="78.3" x2="1437.5" y2="135"/>
				</g>
			</g>
		</g>
	</g>
	<g class="st1">
		<g>
			<g>
				<line class="st2" x1="-58" y1="272.9" x2="-58" y2="364.9"/>
				<line class="st2" x1="58.1" y1="272.9" x2="58.1" y2="364.9"/>
				<line class="st2" x1="-38.7" y1="263.7" x2="-38.7" y2="374.1"/>
				<line class="st2" x1="-19.3" y1="251" x2="-19.3" y2="386.8"/>
				<line class="st2" x1="0" y1="245.3" x2="0" y2="392.4"/>
				<line class="st2" x1="19.4" y1="251" x2="19.4" y2="386.8"/>
				<line class="st2" x1="38.7" y1="263.7" x2="38.7" y2="374.1"/>
			</g>
			<g>
				<g>
					<line class="st2" x1="83" y1="120.8" x2="4.1" y2="168"/>
					<line class="st2" x1="142.7" y1="220.4" x2="63.7" y2="267.7"/>
					<line class="st2" x1="100.9" y1="132.7" x2="6.1" y2="189.4"/>
					<line class="st2" x1="121.7" y1="142.8" x2="5.2" y2="212.5"/>
					<line class="st2" x1="136.5" y1="156.5" x2="10.3" y2="232"/>
					<line class="st2" x1="141.6" y1="176" x2="25.1" y2="245.7"/>
					<line class="st2" x1="140.6" y1="199.1" x2="45.9" y2="255.8"/>
				</g>
				<g>
					<line class="st2" x1="-83" y1="120.8" x2="-4.1" y2="168"/>
					<line class="st2" x1="-142.6" y1="220.4" x2="-63.7" y2="267.7"/>
					<line class="st2" x1="-100.8" y1="132.7" x2="-6.1" y2="189.4"/>
					<line class="st2" x1="-121.7" y1="142.8" x2="-5.1" y2="212.5"/>
					<line class="st2" x1="-136.4" y1="156.5" x2="-10.3" y2="232"/>
					<line class="st2" x1="-141.5" y1="176" x2="-25" y2="245.7"/>
					<line class="st2" x1="-140.6" y1="199.1" x2="-45.8" y2="255.8"/>
				</g>
			</g>
		</g>
		<g>
			<g>
				<line class="st2" x1="154.6" y1="396.1" x2="154.6" y2="488.1"/>
				<line class="st2" x1="270.7" y1="396.1" x2="270.7" y2="488.1"/>
				<line class="st2" x1="173.9" y1="386.9" x2="173.9" y2="497.3"/>
				<line class="st2" x1="193.3" y1="374.2" x2="193.3" y2="510"/>
				<line class="st2" x1="212.6" y1="368.6" x2="212.6" y2="515.6"/>
				<line class="st2" x1="232" y1="374.2" x2="232" y2="510"/>
				<line class="st2" x1="251.3" y1="386.9" x2="251.3" y2="497.3"/>
			</g>
			<g>
				<g>
					<line class="st2" x1="295.6" y1="244.1" x2="216.7" y2="291.3"/>
					<line class="st2" x1="355.3" y1="343.7" x2="276.3" y2="390.9"/>
					<line class="st2" x1="313.5" y1="255.9" x2="218.7" y2="312.6"/>
					<line class="st2" x1="334.3" y1="266" x2="217.8" y2="335.8"/>
					<line class="st2" x1="349.1" y1="279.7" x2="222.9" y2="355.3"/>
					<line class="st2" x1="354.2" y1="299.2" x2="237.7" y2="369"/>
					<line class="st2" x1="353.2" y1="322.4" x2="258.5" y2="379.1"/>
				</g>
				<g>
					<line class="st2" x1="129.6" y1="244.1" x2="208.5" y2="291.3"/>
					<line class="st2" x1="70" y1="343.7" x2="148.9" y2="390.9"/>
					<line class="st2" x1="111.8" y1="255.9" x2="206.5" y2="312.6"/>
					<line class="st2" x1="90.9" y1="266" x2="207.5" y2="335.8"/>
					<line class="st2" x1="76.2" y1="279.7" x2="202.4" y2="355.3"/>
					<line class="st2" x1="71.1" y1="299.2" x2="187.6" y2="369"/>
					<line class="st2" x1="72" y1="322.4" x2="166.8" y2="379.1"/>
				</g>
			</g>
		</g>
	</g>
	<g class="st1">
		<g>
			<g>
				<line class="st2" x1="365.5" y1="272.9" x2="365.5" y2="364.9"/>
				<line class="st2" x1="481.6" y1="272.9" x2="481.6" y2="364.9"/>
				<line class="st2" x1="384.9" y1="263.7" x2="384.9" y2="374.1"/>
				<line class="st2" x1="404.2" y1="251" x2="404.2" y2="386.8"/>
				<line class="st2" x1="423.6" y1="245.3" x2="423.6" y2="392.4"/>
				<line class="st2" x1="442.9" y1="251" x2="442.9" y2="386.8"/>
				<line class="st2" x1="462.3" y1="263.7" x2="462.3" y2="374.1"/>
			</g>
			<g>
				<g>
					<line class="st2" x1="506.6" y1="120.8" x2="427.7" y2="168"/>
					<line class="st2" x1="566.2" y1="220.4" x2="487.3" y2="267.7"/>
					<line class="st2" x1="524.4" y1="132.7" x2="429.7" y2="189.4"/>
					<line class="st2" x1="545.3" y1="142.8" x2="428.8" y2="212.5"/>
					<line class="st2" x1="560" y1="156.5" x2="433.9" y2="232"/>
					<line class="st2" x1="565.1" y1="176" x2="448.6" y2="245.7"/>
					<line class="st2" x1="564.2" y1="199.1" x2="469.4" y2="255.8"/>
				</g>
				<g>
					<line class="st2" x1="340.6" y1="120.8" x2="419.5" y2="168"/>
					<line class="st2" x1="280.9" y1="220.4" x2="359.9" y2="267.7"/>
					<line class="st2" x1="322.7" y1="132.7" x2="417.5" y2="189.4"/>
					<line class="st2" x1="301.9" y1="142.8" x2="418.4" y2="212.5"/>
					<line class="st2" x1="287.1" y1="156.5" x2="413.3" y2="232"/>
					<line class="st2" x1="282" y1="176" x2="398.5" y2="245.7"/>
					<line class="st2" x1="283" y1="199.1" x2="377.7" y2="255.8"/>
				</g>
			</g>
		</g>
		<g>
			<g>
				<line class="st2" x1="578.1" y1="396.1" x2="578.1" y2="488.1"/>
				<line class="st2" x1="694.2" y1="396.1" x2="694.2" y2="488.1"/>
				<line class="st2" x1="597.5" y1="386.9" x2="597.5" y2="497.3"/>
				<line class="st2" x1="616.8" y1="374.2" x2="616.8" y2="510"/>
				<line class="st2" x1="636.2" y1="368.6" x2="636.2" y2="515.6"/>
				<line class="st2" x1="655.5" y1="374.2" x2="655.5" y2="510"/>
				<line class="st2" x1="674.9" y1="386.9" x2="674.9" y2="497.3"/>
			</g>
			<g>
				<g>
					<line class="st2" x1="719.2" y1="244.1" x2="640.3" y2="291.3"/>
					<line class="st2" x1="778.8" y1="343.7" x2="699.9" y2="390.9"/>
					<line class="st2" x1="737" y1="255.9" x2="642.3" y2="312.6"/>
					<line class="st2" x1="757.9" y1="266" x2="641.4" y2="335.8"/>
					<line class="st2" x1="772.6" y1="279.7" x2="646.5" y2="355.3"/>
					<line class="st2" x1="777.7" y1="299.2" x2="661.2" y2="369"/>
					<line class="st2" x1="776.8" y1="322.4" x2="682.1" y2="379.1"/>
				</g>
				<g>
					<line class="st2" x1="553.2" y1="244.1" x2="632.1" y2="291.3"/>
					<line class="st2" x1="493.6" y1="343.7" x2="572.5" y2="390.9"/>
					<line class="st2" x1="535.3" y1="255.9" x2="630.1" y2="312.6"/>
					<line class="st2" x1="514.5" y1="266" x2="631" y2="335.8"/>
					<line class="st2" x1="499.7" y1="279.7" x2="625.9" y2="355.3"/>
					<line class="st2" x1="494.6" y1="299.2" x2="611.2" y2="369"/>
					<line class="st2" x1="495.6" y1="322.4" x2="590.3" y2="379.1"/>
				</g>
			</g>
		</g>
	</g>
	<g class="st1">
		<g>
			<g>
				<line class="st2" x1="789.1" y1="272.9" x2="789.1" y2="364.9"/>
				<line class="st2" x1="905.2" y1="272.9" x2="905.2" y2="364.9"/>
				<line class="st2" x1="808.5" y1="263.7" x2="808.5" y2="374.1"/>
				<line class="st2" x1="827.8" y1="251" x2="827.8" y2="386.8"/>
				<line class="st2" x1="847.2" y1="245.3" x2="847.2" y2="392.4"/>
				<line class="st2" x1="866.5" y1="251" x2="866.5" y2="386.8"/>
				<line class="st2" x1="885.9" y1="263.7" x2="885.9" y2="374.1"/>
			</g>
			<g>
				<g>
					<line class="st2" x1="930.2" y1="120.8" x2="851.2" y2="168"/>
					<line class="st2" x1="989.8" y1="220.4" x2="910.9" y2="267.7"/>
					<line class="st2" x1="948" y1="132.7" x2="853.3" y2="189.4"/>
					<line class="st2" x1="968.8" y1="142.8" x2="852.3" y2="212.5"/>
					<line class="st2" x1="983.6" y1="156.5" x2="857.4" y2="232"/>
					<line class="st2" x1="988.7" y1="176" x2="872.2" y2="245.7"/>
					<line class="st2" x1="987.8" y1="199.1" x2="893" y2="255.8"/>
				</g>
				<g>
					<line class="st2" x1="764.1" y1="120.8" x2="843.1" y2="168"/>
					<line class="st2" x1="704.5" y1="220.4" x2="783.5" y2="267.7"/>
					<line class="st2" x1="746.3" y1="132.7" x2="841" y2="189.4"/>
					<line class="st2" x1="725.5" y1="142.8" x2="842" y2="212.5"/>
					<line class="st2" x1="710.7" y1="156.5" x2="836.9" y2="232"/>
					<line class="st2" x1="705.6" y1="176" x2="822.1" y2="245.7"/>
					<line class="st2" x1="706.6" y1="199.1" x2="801.3" y2="255.8"/>
				</g>
			</g>
		</g>
		<g>
			<g>
				<line class="st2" x1="1001.7" y1="396.1" x2="1001.7" y2="488.1"/>
				<line class="st2" x1="1117.8" y1="396.1" x2="1117.8" y2="488.1"/>
				<line class="st2" x1="1021.1" y1="386.9" x2="1021.1" y2="497.3"/>
				<line class="st2" x1="1040.4" y1="374.2" x2="1040.4" y2="510"/>
				<line class="st2" x1="1059.8" y1="368.6" x2="1059.8" y2="515.6"/>
				<line class="st2" x1="1079.1" y1="374.2" x2="1079.1" y2="510"/>
				<line class="st2" x1="1098.5" y1="386.9" x2="1098.5" y2="497.3"/>
			</g>
			<g>
				<g>
					<line class="st2" x1="1142.8" y1="244.1" x2="1063.8" y2="291.3"/>
					<line class="st2" x1="1202.4" y1="343.7" x2="1123.5" y2="390.9"/>
					<line class="st2" x1="1160.6" y1="255.9" x2="1065.9" y2="312.6"/>
					<line class="st2" x1="1181.4" y1="266" x2="1064.9" y2="335.8"/>
					<line class="st2" x1="1196.2" y1="279.7" x2="1070" y2="355.3"/>
					<line class="st2" x1="1201.3" y1="299.2" x2="1084.8" y2="369"/>
					<line class="st2" x1="1200.4" y1="322.4" x2="1105.6" y2="379.1"/>
				</g>
				<g>
					<line class="st2" x1="976.7" y1="244.1" x2="1055.7" y2="291.3"/>
					<line class="st2" x1="917.1" y1="343.7" x2="996.1" y2="390.9"/>
					<line class="st2" x1="958.9" y1="255.9" x2="1053.7" y2="312.6"/>
					<line class="st2" x1="938.1" y1="266" x2="1054.6" y2="335.8"/>
					<line class="st2" x1="923.3" y1="279.7" x2="1049.5" y2="355.3"/>
					<line class="st2" x1="918.2" y1="299.2" x2="1034.7" y2="369"/>
					<line class="st2" x1="919.2" y1="322.4" x2="1013.9" y2="379.1"/>
				</g>
			</g>
		</g>
	</g>
	<g class="st1">
		<g>
			<g>
				<line class="st2" x1="1212.7" y1="272.9" x2="1212.7" y2="364.9"/>
				<line class="st2" x1="1328.8" y1="272.9" x2="1328.8" y2="364.9"/>
				<line class="st2" x1="1232" y1="263.7" x2="1232" y2="374.1"/>
				<line class="st2" x1="1251.4" y1="251" x2="1251.4" y2="386.8"/>
				<line class="st2" x1="1270.7" y1="245.3" x2="1270.7" y2="392.4"/>
				<line class="st2" x1="1290.1" y1="251" x2="1290.1" y2="386.8"/>
				<line class="st2" x1="1309.4" y1="263.7" x2="1309.4" y2="374.1"/>
			</g>
			<g>
				<g>
					<line class="st2" x1="1353.7" y1="120.8" x2="1274.8" y2="168"/>
					<line class="st2" x1="1413.4" y1="220.4" x2="1334.4" y2="267.7"/>
					<line class="st2" x1="1371.6" y1="132.7" x2="1276.8" y2="189.4"/>
					<line class="st2" x1="1392.4" y1="142.8" x2="1275.9" y2="212.5"/>
					<line class="st2" x1="1407.2" y1="156.5" x2="1281" y2="232"/>
					<line class="st2" x1="1412.3" y1="176" x2="1295.8" y2="245.7"/>
					<line class="st2" x1="1411.3" y1="199.1" x2="1316.6" y2="255.8"/>
				</g>
				<g>
					<line class="st2" x1="1187.7" y1="120.8" x2="1266.7" y2="168"/>
					<line class="st2" x1="1128.1" y1="220.4" x2="1207" y2="267.7"/>
					<line class="st2" x1="1169.9" y1="132.7" x2="1264.6" y2="189.4"/>
					<line class="st2" x1="1149.1" y1="142.8" x2="1265.6" y2="212.5"/>
					<line class="st2" x1="1134.3" y1="156.5" x2="1260.5" y2="232"/>
					<line class="st2" x1="1129.2" y1="176" x2="1245.7" y2="245.7"/>
					<line class="st2" x1="1130.1" y1="199.1" x2="1224.9" y2="255.8"/>
				</g>
			</g>
		</g>
		<g>
			<g>
				<line class="st2" x1="1425.3" y1="396.1" x2="1425.3" y2="488.1"/>
				<line class="st2" x1="1541.4" y1="396.1" x2="1541.4" y2="488.1"/>
				<line class="st2" x1="1444.6" y1="386.9" x2="1444.6" y2="497.3"/>
				<line class="st2" x1="1464" y1="374.2" x2="1464" y2="510"/>
				<line class="st2" x1="1483.3" y1="368.6" x2="1483.3" y2="515.6"/>
				<line class="st2" x1="1502.7" y1="374.2" x2="1502.7" y2="510"/>
				<line class="st2" x1="1522" y1="386.9" x2="1522" y2="497.3"/>
			</g>
			<g>
				<g>
					<line class="st2" x1="1566.4" y1="244.1" x2="1487.4" y2="291.3"/>
					<line class="st2" x1="1626" y1="343.7" x2="1547" y2="390.9"/>
					<line class="st2" x1="1584.2" y1="255.9" x2="1489.4" y2="312.6"/>
					<line class="st2" x1="1605" y1="266" x2="1488.5" y2="335.8"/>
					<line class="st2" x1="1619.8" y1="279.7" x2="1493.6" y2="355.3"/>
					<line class="st2" x1="1624.9" y1="299.2" x2="1508.4" y2="369"/>
					<line class="st2" x1="1623.9" y1="322.4" x2="1529.2" y2="379.1"/>
				</g>
				<g>
					<line class="st2" x1="1400.3" y1="244.1" x2="1479.3" y2="291.3"/>
					<line class="st2" x1="1340.7" y1="343.7" x2="1419.6" y2="390.9"/>
					<line class="st2" x1="1382.5" y1="255.9" x2="1477.2" y2="312.6"/>
					<line class="st2" x1="1361.7" y1="266" x2="1478.2" y2="335.8"/>
					<line class="st2" x1="1346.9" y1="279.7" x2="1473.1" y2="355.3"/>
					<line class="st2" x1="1341.8" y1="299.2" x2="1458.3" y2="369"/>
					<line class="st2" x1="1342.7" y1="322.4" x2="1437.5" y2="379.1"/>
				</g>
			</g>
		</g>
	</g>
	<g class="st1">
		<g>
			<g>
				<line class="st2" x1="-58" y1="516.9" x2="-58" y2="608.9"/>
				<line class="st2" x1="58.1" y1="516.9" x2="58.1" y2="608.9"/>
				<line class="st2" x1="-38.7" y1="507.7" x2="-38.7" y2="618.1"/>
				<line class="st2" x1="-19.3" y1="495" x2="-19.3" y2="630.8"/>
				<line class="st2" x1="0" y1="489.4" x2="0" y2="636.4"/>
				<line class="st2" x1="19.4" y1="495" x2="19.4" y2="630.8"/>
				<line class="st2" x1="38.7" y1="507.7" x2="38.7" y2="618.1"/>
			</g>
			<g>
				<g>
					<line class="st2" x1="83" y1="364.9" x2="4.1" y2="412.1"/>
					<line class="st2" x1="142.7" y1="464.5" x2="63.7" y2="511.7"/>
					<line class="st2" x1="100.9" y1="376.7" x2="6.1" y2="433.4"/>
					<line class="st2" x1="121.7" y1="386.8" x2="5.2" y2="456.6"/>
					<line class="st2" x1="136.5" y1="400.5" x2="10.3" y2="476.1"/>
					<line class="st2" x1="141.6" y1="420" x2="25.1" y2="489.8"/>
					<line class="st2" x1="140.6" y1="443.2" x2="45.9" y2="499.9"/>
				</g>
				<g>
					<line class="st2" x1="-83" y1="364.9" x2="-4.1" y2="412.1"/>
					<line class="st2" x1="-142.6" y1="464.5" x2="-63.7" y2="511.7"/>
					<line class="st2" x1="-100.8" y1="376.7" x2="-6.1" y2="433.4"/>
					<line class="st2" x1="-121.7" y1="386.8" x2="-5.1" y2="456.6"/>
					<line class="st2" x1="-136.4" y1="400.5" x2="-10.3" y2="476.1"/>
					<line class="st2" x1="-141.5" y1="420" x2="-25" y2="489.8"/>
					<line class="st2" x1="-140.6" y1="443.2" x2="-45.8" y2="499.9"/>
				</g>
			</g>
		</g>
		<g>
			<g>
				<line class="st2" x1="154.6" y1="640.2" x2="154.6" y2="732.2"/>
				<line class="st2" x1="270.7" y1="640.2" x2="270.7" y2="732.2"/>
				<line class="st2" x1="173.9" y1="631" x2="173.9" y2="741.4"/>
				<line class="st2" x1="193.3" y1="618.3" x2="193.3" y2="754.1"/>
				<line class="st2" x1="212.6" y1="612.6" x2="212.6" y2="759.7"/>
				<line class="st2" x1="232" y1="618.3" x2="232" y2="754.1"/>
				<line class="st2" x1="251.3" y1="631" x2="251.3" y2="741.4"/>
			</g>
			<g>
				<g>
					<line class="st2" x1="295.6" y1="488.1" x2="216.7" y2="535.4"/>
					<line class="st2" x1="355.3" y1="587.7" x2="276.3" y2="635"/>
					<line class="st2" x1="313.5" y1="500" x2="218.7" y2="556.7"/>
					<line class="st2" x1="334.3" y1="510.1" x2="217.8" y2="579.8"/>
					<line class="st2" x1="349.1" y1="523.8" x2="222.9" y2="599.3"/>
					<line class="st2" x1="354.2" y1="543.3" x2="237.7" y2="613"/>
					<line class="st2" x1="353.2" y1="566.4" x2="258.5" y2="623.1"/>
				</g>
				<g>
					<line class="st2" x1="129.6" y1="488.1" x2="208.5" y2="535.4"/>
					<line class="st2" x1="70" y1="587.7" x2="148.9" y2="635"/>
					<line class="st2" x1="111.8" y1="500" x2="206.5" y2="556.7"/>
					<line class="st2" x1="90.9" y1="510.1" x2="207.5" y2="579.8"/>
					<line class="st2" x1="76.2" y1="523.8" x2="202.4" y2="599.3"/>
					<line class="st2" x1="71.1" y1="543.3" x2="187.6" y2="613"/>
					<line class="st2" x1="72" y1="566.4" x2="166.8" y2="623.1"/>
				</g>
			</g>
		</g>
	</g>
	<g class="st1">
		<g>
			<g>
				<line class="st2" x1="365.5" y1="516.9" x2="365.5" y2="608.9"/>
				<line class="st2" x1="481.6" y1="516.9" x2="481.6" y2="608.9"/>
				<line class="st2" x1="384.9" y1="507.7" x2="384.9" y2="618.1"/>
				<line class="st2" x1="404.2" y1="495" x2="404.2" y2="630.8"/>
				<line class="st2" x1="423.6" y1="489.4" x2="423.6" y2="636.4"/>
				<line class="st2" x1="442.9" y1="495" x2="442.9" y2="630.8"/>
				<line class="st2" x1="462.3" y1="507.7" x2="462.3" y2="618.1"/>
			</g>
			<g>
				<g>
					<line class="st2" x1="506.6" y1="364.9" x2="427.7" y2="412.1"/>
					<line class="st2" x1="566.2" y1="464.5" x2="487.3" y2="511.7"/>
					<line class="st2" x1="524.4" y1="376.7" x2="429.7" y2="433.4"/>
					<line class="st2" x1="545.3" y1="386.8" x2="428.8" y2="456.6"/>
					<line class="st2" x1="560" y1="400.5" x2="433.9" y2="476.1"/>
					<line class="st2" x1="565.1" y1="420" x2="448.6" y2="489.8"/>
					<line class="st2" x1="564.2" y1="443.2" x2="469.4" y2="499.9"/>
				</g>
				<g>
					<line class="st2" x1="340.6" y1="364.9" x2="419.5" y2="412.1"/>
					<line class="st2" x1="280.9" y1="464.5" x2="359.9" y2="511.7"/>
					<line class="st2" x1="322.7" y1="376.7" x2="417.5" y2="433.4"/>
					<line class="st2" x1="301.9" y1="386.8" x2="418.4" y2="456.6"/>
					<line class="st2" x1="287.1" y1="400.5" x2="413.3" y2="476.1"/>
					<line class="st2" x1="282" y1="420" x2="398.5" y2="489.8"/>
					<line class="st2" x1="283" y1="443.2" x2="377.7" y2="499.9"/>
				</g>
			</g>
		</g>
		<g>
			<g>
				<line class="st2" x1="578.1" y1="640.2" x2="578.1" y2="732.2"/>
				<line class="st2" x1="694.2" y1="640.2" x2="694.2" y2="732.2"/>
				<line class="st2" x1="597.5" y1="631" x2="597.5" y2="741.4"/>
				<line class="st2" x1="616.8" y1="618.3" x2="616.8" y2="754.1"/>
				<line class="st2" x1="636.2" y1="612.6" x2="636.2" y2="759.7"/>
				<line class="st2" x1="655.5" y1="618.3" x2="655.5" y2="754.1"/>
				<line class="st2" x1="674.9" y1="631" x2="674.9" y2="741.4"/>
			</g>
			<g>
				<g>
					<line class="st2" x1="719.2" y1="488.1" x2="640.3" y2="535.4"/>
					<line class="st2" x1="778.8" y1="587.7" x2="699.9" y2="635"/>
					<line class="st2" x1="737" y1="500" x2="642.3" y2="556.7"/>
					<line class="st2" x1="757.9" y1="510.1" x2="641.4" y2="579.8"/>
					<line class="st2" x1="772.6" y1="523.8" x2="646.5" y2="599.3"/>
					<line class="st2" x1="777.7" y1="543.3" x2="661.2" y2="613"/>
					<line class="st2" x1="776.8" y1="566.4" x2="682.1" y2="623.1"/>
				</g>
				<g>
					<line class="st2" x1="553.2" y1="488.1" x2="632.1" y2="535.4"/>
					<line class="st2" x1="493.6" y1="587.7" x2="572.5" y2="635"/>
					<line class="st2" x1="535.3" y1="500" x2="630.1" y2="556.7"/>
					<line class="st2" x1="514.5" y1="510.1" x2="631" y2="579.8"/>
					<line class="st2" x1="499.7" y1="523.8" x2="625.9" y2="599.3"/>
					<line class="st2" x1="494.6" y1="543.3" x2="611.2" y2="613"/>
					<line class="st2" x1="495.6" y1="566.4" x2="590.3" y2="623.1"/>
				</g>
			</g>
		</g>
	</g>
	<g class="st1">
		<g>
			<g>
				<line class="st2" x1="789.1" y1="516.9" x2="789.1" y2="608.9"/>
				<line class="st2" x1="905.2" y1="516.9" x2="905.2" y2="608.9"/>
				<line class="st2" x1="808.5" y1="507.7" x2="808.5" y2="618.1"/>
				<line class="st2" x1="827.8" y1="495" x2="827.8" y2="630.8"/>
				<line class="st2" x1="847.2" y1="489.4" x2="847.2" y2="636.4"/>
				<line class="st2" x1="866.5" y1="495" x2="866.5" y2="630.8"/>
				<line class="st2" x1="885.9" y1="507.7" x2="885.9" y2="618.1"/>
			</g>
			<g>
				<g>
					<line class="st2" x1="930.2" y1="364.9" x2="851.2" y2="412.1"/>
					<line class="st2" x1="989.8" y1="464.5" x2="910.9" y2="511.7"/>
					<line class="st2" x1="948" y1="376.7" x2="853.3" y2="433.4"/>
					<line class="st2" x1="968.8" y1="386.8" x2="852.3" y2="456.6"/>
					<line class="st2" x1="983.6" y1="400.5" x2="857.4" y2="476.1"/>
					<line class="st2" x1="988.7" y1="420" x2="872.2" y2="489.8"/>
					<line class="st2" x1="987.8" y1="443.2" x2="893" y2="499.9"/>
				</g>
				<g>
					<line class="st2" x1="764.1" y1="364.9" x2="843.1" y2="412.1"/>
					<line class="st2" x1="704.5" y1="464.5" x2="783.5" y2="511.7"/>
					<line class="st2" x1="746.3" y1="376.7" x2="841" y2="433.4"/>
					<line class="st2" x1="725.5" y1="386.8" x2="842" y2="456.6"/>
					<line class="st2" x1="710.7" y1="400.5" x2="836.9" y2="476.1"/>
					<line class="st2" x1="705.6" y1="420" x2="822.1" y2="489.8"/>
					<line class="st2" x1="706.6" y1="443.2" x2="801.3" y2="499.9"/>
				</g>
			</g>
		</g>
		<g>
			<g>
				<line class="st2" x1="1001.7" y1="640.2" x2="1001.7" y2="732.2"/>
				<line class="st2" x1="1117.8" y1="640.2" x2="1117.8" y2="732.2"/>
				<line class="st2" x1="1021.1" y1="631" x2="1021.1" y2="741.4"/>
				<line class="st2" x1="1040.4" y1="618.3" x2="1040.4" y2="754.1"/>
				<line class="st2" x1="1059.8" y1="612.6" x2="1059.8" y2="759.7"/>
				<line class="st2" x1="1079.1" y1="618.3" x2="1079.1" y2="754.1"/>
				<line class="st2" x1="1098.5" y1="631" x2="1098.5" y2="741.4"/>
			</g>
			<g>
				<g>
					<line class="st2" x1="1142.8" y1="488.1" x2="1063.8" y2="535.4"/>
					<line class="st2" x1="1202.4" y1="587.7" x2="1123.5" y2="635"/>
					<line class="st2" x1="1160.6" y1="500" x2="1065.9" y2="556.7"/>
					<line class="st2" x1="1181.4" y1="510.1" x2="1064.9" y2="579.8"/>
					<line class="st2" x1="1196.2" y1="523.8" x2="1070" y2="599.3"/>
					<line class="st2" x1="1201.3" y1="543.3" x2="1084.8" y2="613"/>
					<line class="st2" x1="1200.4" y1="566.4" x2="1105.6" y2="623.1"/>
				</g>
				<g>
					<line class="st2" x1="976.7" y1="488.1" x2="1055.7" y2="535.4"/>
					<line class="st2" x1="917.1" y1="587.7" x2="996.1" y2="635"/>
					<line class="st2" x1="958.9" y1="500" x2="1053.7" y2="556.7"/>
					<line class="st2" x1="938.1" y1="510.1" x2="1054.6" y2="579.8"/>
					<line class="st2" x1="923.3" y1="523.8" x2="1049.5" y2="599.3"/>
					<line class="st2" x1="918.2" y1="543.3" x2="1034.7" y2="613"/>
					<line class="st2" x1="919.2" y1="566.4" x2="1013.9" y2="623.1"/>
				</g>
			</g>
		</g>
	</g>
	<g class="st1">
		<g>
			<g>
				<line class="st2" x1="1212.7" y1="516.9" x2="1212.7" y2="608.9"/>
				<line class="st2" x1="1328.8" y1="516.9" x2="1328.8" y2="608.9"/>
				<line class="st2" x1="1232" y1="507.7" x2="1232" y2="618.1"/>
				<line class="st2" x1="1251.4" y1="495" x2="1251.4" y2="630.8"/>
				<line class="st2" x1="1270.7" y1="489.4" x2="1270.7" y2="636.4"/>
				<line class="st2" x1="1290.1" y1="495" x2="1290.1" y2="630.8"/>
				<line class="st2" x1="1309.4" y1="507.7" x2="1309.4" y2="618.1"/>
			</g>
			<g>
				<g>
					<line class="st2" x1="1353.7" y1="364.9" x2="1274.8" y2="412.1"/>
					<line class="st2" x1="1413.4" y1="464.5" x2="1334.4" y2="511.7"/>
					<line class="st2" x1="1371.6" y1="376.7" x2="1276.8" y2="433.4"/>
					<line class="st2" x1="1392.4" y1="386.8" x2="1275.9" y2="456.6"/>
					<line class="st2" x1="1407.2" y1="400.5" x2="1281" y2="476.1"/>
					<line class="st2" x1="1412.3" y1="420" x2="1295.8" y2="489.8"/>
					<line class="st2" x1="1411.3" y1="443.2" x2="1316.6" y2="499.9"/>
				</g>
				<g>
					<line class="st2" x1="1187.7" y1="364.9" x2="1266.7" y2="412.1"/>
					<line class="st2" x1="1128.1" y1="464.5" x2="1207" y2="511.7"/>
					<line class="st2" x1="1169.9" y1="376.7" x2="1264.6" y2="433.4"/>
					<line class="st2" x1="1149.1" y1="386.8" x2="1265.6" y2="456.6"/>
					<line class="st2" x1="1134.3" y1="400.5" x2="1260.5" y2="476.1"/>
					<line class="st2" x1="1129.2" y1="420" x2="1245.7" y2="489.8"/>
					<line class="st2" x1="1130.1" y1="443.2" x2="1224.9" y2="499.9"/>
				</g>
			</g>
		</g>
		<g>
			<g>
				<line class="st2" x1="1425.3" y1="640.2" x2="1425.3" y2="732.2"/>
				<line class="st2" x1="1541.4" y1="640.2" x2="1541.4" y2="732.2"/>
				<line class="st2" x1="1444.6" y1="631" x2="1444.6" y2="741.4"/>
				<line class="st2" x1="1464" y1="618.3" x2="1464" y2="754.1"/>
				<line class="st2" x1="1483.3" y1="612.6" x2="1483.3" y2="759.7"/>
				<line class="st2" x1="1502.7" y1="618.3" x2="1502.7" y2="754.1"/>
				<line class="st2" x1="1522" y1="631" x2="1522" y2="741.4"/>
			</g>
			<g>
				<g>
					<line class="st2" x1="1566.4" y1="488.1" x2="1487.4" y2="535.4"/>
					<line class="st2" x1="1626" y1="587.7" x2="1547" y2="635"/>
					<line class="st2" x1="1584.2" y1="500" x2="1489.4" y2="556.7"/>
					<line class="st2" x1="1605" y1="510.1" x2="1488.5" y2="579.8"/>
					<line class="st2" x1="1619.8" y1="523.8" x2="1493.6" y2="599.3"/>
					<line class="st2" x1="1624.9" y1="543.3" x2="1508.4" y2="613"/>
					<line class="st2" x1="1623.9" y1="566.4" x2="1529.2" y2="623.1"/>
				</g>
				<g>
					<line class="st2" x1="1400.3" y1="488.1" x2="1479.3" y2="535.4"/>
					<line class="st2" x1="1340.7" y1="587.7" x2="1419.6" y2="635"/>
					<line class="st2" x1="1382.5" y1="500" x2="1477.2" y2="556.7"/>
					<line class="st2" x1="1361.7" y1="510.1" x2="1478.2" y2="579.8"/>
					<line class="st2" x1="1346.9" y1="523.8" x2="1473.1" y2="599.3"/>
					<line class="st2" x1="1341.8" y1="543.3" x2="1458.3" y2="613"/>
					<line class="st2" x1="1342.7" y1="566.4" x2="1437.5" y2="623.1"/>
				</g>
			</g>
		</g>
	</g>
</g>
</svg>
