<?xml version="1.0" encoding="utf-8"?>
<!-- Generator: Adobe Illustrator 22.1.0, SVG Export Plug-In . SVG Version: 6.00 Build 0)  -->
<svg version="1.1" id="Layer_1" xmlns="http://www.w3.org/2000/svg" xmlns:xlink="http://www.w3.org/1999/xlink" x="0px" y="0px"
	 viewBox="0 0 225.6 319.3" style="enable-background:new 0 0 225.6 319.3;" xml:space="preserve">
<style type="text/css">
	.st0{fill:#FFFFFF;}
</style>
<title>phone</title>
<path class="st0" d="M32.1,215.5c2.3-5.2,8.5-7.6,13.7-5.3c0,0,0,0,0,0l59.3,19c23.8-0.1,36.3-17.9,47.7-47.2l42.8,21.2
	c-40.5,79.3-83.7,109.4-113,115.9c-14.7,3.2-85-26.3-82.6-31.5L32.1,215.5z"/>
<path class="st0" d="M104.3,69.6c-2.8,5-0.9,11.3,4.1,14.1c0,0,0,0,0,0l51,35.7c14.3,19,3.9,38-8.5,66.7l42.6,21.1
	C232.2,126.9,230,74.3,217.4,47C211,33.4,145-4.6,142.2,0.5L104.3,69.6z"/>
</svg>
