<?xml version="1.0" encoding="utf-8"?>
<!-- Generator: Adobe Illustrator 23.0.1, SVG Export Plug-In . SVG Version: 6.00 Build 0)  -->
<svg version="1.1" id="Layer_1" xmlns="http://www.w3.org/2000/svg" xmlns:xlink="http://www.w3.org/1999/xlink" x="0px" y="0px"
	 viewBox="0 0 51 63.7" style="enable-background:new 0 0 51 63.7;" xml:space="preserve">
<style type="text/css">
	.st0{fill:#FFFFFF;}
</style>
<path class="st0" d="M25.5,25.5c5.5,0,9.9-4.4,9.9-9.9c0-5.5-4.4-9.9-9.9-9.9s-9.9,4.4-9.9,9.9C15.6,21.1,20,25.5,25.5,25.5z
	 M25.5,31.2c-8.6,0-15.6-7-15.6-15.6S16.9,0,25.5,0s15.6,7,15.6,15.6S34.1,31.2,25.5,31.2z M25.5,39.7C15,39.7,6.4,47.8,5.7,58.1
	h39.6C44.6,47.8,36,39.7,25.5,39.7z M51,59.5c0,2.3-1.9,4.2-4.2,4.2H4.2c-2.3,0-4.2-1.9-4.2-4.2C0,45.4,11.4,34,25.5,34
	S51,45.4,51,59.5L51,59.5z"/>
</svg>
