<?xml version="1.0" encoding="utf-8"?>
<!-- Generator: Adobe Illustrator 23.0.1, SVG Export Plug-In . SVG Version: 6.00 Build 0)  -->
<svg version="1.1" id="Layer_1" xmlns="http://www.w3.org/2000/svg" xmlns:xlink="http://www.w3.org/1999/xlink" x="0px" y="0px"
	 viewBox="0 0 90 63.7" style="enable-background:new 0 0 90 63.7;" xml:space="preserve">
<style type="text/css">
	.st0{fill:#FFFFFF;}
</style>
<g>
	<path class="st0" d="M72.5,31.9c6,0,10.9-4.9,10.9-10.9c0-6-4.9-10.9-10.9-10.9S61.6,15,61.6,21C61.6,27,66.5,31.9,72.5,31.9z
		 M72.5,14.9c3.4,0,6.1,2.7,6.1,6.1c0,3.4-2.7,6.1-6.1,6.1s-6.1-2.7-6.1-6.1C66.4,17.6,69.1,14.9,72.5,14.9z"/>
	<path class="st0" d="M45,31.2c8.6,0,15.6-7,15.6-15.6C60.6,7,53.6,0,45,0c-8.6,0-15.6,7-15.6,15.6C29.4,24.2,36.4,31.2,45,31.2z
		 M45,5.7c5.5,0,9.9,4.4,9.9,9.9s-4.4,9.9-9.9,9.9s-9.9-4.4-9.9-9.9S39.5,5.7,45,5.7z"/>
	<path class="st0" d="M17.5,31.9c6,0,10.9-4.9,10.9-10.9c0-6-4.9-10.9-10.9-10.9S6.6,15,6.6,21C6.6,27,11.5,31.9,17.5,31.9z
		 M17.5,14.9c3.4,0,6.1,2.7,6.1,6.1c0,3.4-2.7,6.1-6.1,6.1s-6.1-2.7-6.1-6.1C11.4,17.6,14.1,14.9,17.5,14.9z"/>
	<path class="st0" d="M72.5,32.8c-5.1,0-9.7,2.2-13,5.8C55.4,35.7,50.4,34,45,34c-5.4,0-10.4,1.7-14.5,4.6c-3.2-3.5-7.8-5.8-13-5.8
		C7.9,32.8,0,40.6,0,50.3c0,1.8,1.5,3.3,3.3,3.3h16.9c-0.4,1.9-0.7,3.9-0.7,5.9c0,2.3,1.9,4.2,4.2,4.2h42.5c2.3,0,4.2-1.9,4.2-4.2h0
		c0-2-0.2-4-0.7-5.9h16.9c1.8,0,3.3-1.5,3.3-3.3C90,40.6,82.1,32.8,72.5,32.8z M21.8,48.8h-17c0.7-6.4,6.2-11.3,12.6-11.3
		c3.6,0,7,1.6,9.3,4.1C24.8,43.7,23.1,46.2,21.8,48.8z M25.2,58.1c0-0.5,0.1-1,0.2-1.6c0-0.2,0.1-0.4,0.1-0.6c0-0.2,0.1-0.5,0.2-0.7
		c0.1-0.5,0.3-1.1,0.4-1.6c0,0,0,0,0,0l0,0c0.5-1.7,1.3-3.3,2.2-4.8l0,0c0,0,0,0,0,0c0.4-0.7,0.9-1.4,1.5-2l0,0l0,0
		c1.1-1.3,2.4-2.5,3.8-3.5l0,0c0,0,0,0,0,0c1.5-1.1,3.2-1.9,5-2.6c0.2-0.1,0.3-0.1,0.5-0.2c0.3-0.1,0.6-0.2,0.9-0.3
		c0.3-0.1,0.5-0.1,0.8-0.2c0.3-0.1,0.5-0.1,0.8-0.2c0.4-0.1,0.7-0.1,1.1-0.2c0.2,0,0.4-0.1,0.6-0.1c0.6-0.1,1.2-0.1,1.8-0.1
		c0.6,0,1.2,0,1.8,0.1c0.2,0,0.4,0.1,0.6,0.1c0.4,0,0.7,0.1,1.1,0.2c0.3,0,0.5,0.1,0.8,0.2c0.3,0.1,0.5,0.1,0.8,0.2
		c0.3,0.1,0.6,0.2,0.9,0.3c0.2,0.1,0.3,0.1,0.5,0.2c1.8,0.6,3.5,1.5,5,2.6c0,0,0,0,0,0l0,0c1.4,1,2.7,2.2,3.8,3.5l0,0c0,0,0,0,0,0
		c0.5,0.6,1,1.3,1.5,2c0,0,0,0,0,0l0,0c1.2,1.9,2.1,4.1,2.6,6.4c0.1,0.2,0.1,0.5,0.1,0.7c0,0.2,0.1,0.4,0.1,0.6
		c0.1,0.5,0.1,1,0.2,1.6H25.2z M68.2,48.8c-1.2-2.7-2.9-5.1-5-7.2c2.3-2.5,5.7-4.1,9.3-4.1c6.5,0,11.9,4.9,12.6,11.3H68.2z"/>
</g>
</svg>
