<?xml version="1.0" encoding="utf-8"?>
<!-- Generator: Adobe Illustrator 23.0.0, SVG Export Plug-In . SVG Version: 6.00 Build 0)  -->
<svg version="1.1" id="Layer_1" xmlns="http://www.w3.org/2000/svg" xmlns:xlink="http://www.w3.org/1999/xlink" x="0px" y="0px"
	 viewBox="0 0 88 44" style="enable-background:new 0 0 88 44;" xml:space="preserve">
<style type="text/css">
	.st0{fill:#333333;}
</style>
<path class="st0" d="M44.3,44c0.9-0.1,1.7-0.4,2.4-1l40-36C87.5,6.3,88,5.3,88,4.2c0.1-1.1-0.3-2.1-1-2.9S85.3,0,84.2,0
	c-1.1-0.1-2.1,0.3-2.9,1L44,34.6L6.7,1C5.9,0.3,4.9,0,3.8,0C2.7,0.1,1.7,0.5,1,1.3s-1.1,1.9-1,2.9C0.1,5.3,0.5,6.3,1.3,7l40,36
	C42.2,43.7,43.2,44.1,44.3,44L44.3,44z"/>
</svg>
