<?xml version="1.0" encoding="utf-8"?>
<!-- Generator: Adobe Illustrator 23.0.1, SVG Export Plug-In . SVG Version: 6.00 Build 0)  -->
<svg version="1.1" id="Layer_1" xmlns="http://www.w3.org/2000/svg" xmlns:xlink="http://www.w3.org/1999/xlink" x="0px" y="0px"
	 viewBox="0 0 82.1 82.8" style="enable-background:new 0 0 82.1 82.8;" xml:space="preserve">
<style type="text/css">
	.st0{fill:#FFFFFF;}
</style>
<path class="st0" d="M79.2,34.8c0,0,0-0.1,0-0.1c0.2-1.2,0.5-2.4,0.7-3.6c0.4-2,0.8-4,1.1-6.1c0.8-5.2,0.8-9.9,0-14.5
	c-0.6-3.2-1.6-5.8-3.1-8.1c-1.6-2.4-4.1-3.1-6.6-1.9C70,1.2,68.7,2,67.7,2.8c-4.4,3.4-8.6,7.5-12.7,12.6c-3.7-1.1-7.4-1.7-11.1-1.9
	c-5.5-0.2-11.1,0.6-16.8,2.5c-2.6-3-5.6-6-9.2-9c-2.3-1.9-4.4-3.5-7-4.5C7.9,1.5,5.6,2.3,4,4.9c-1.8,2.9-2.9,6.4-3.3,10.5
	C0.1,21.5,0.7,27.9,2.8,36c0,0,0,0.1,0,0.1c-1.5,3.3-2.3,6.4-2.7,9.5c-0.7,6.3,0.6,12.2,3.7,17.6C9,72.2,17,78.1,28.2,81.2
	c3.7,1,7.8,1.6,11.4,1.6c0.2,0,0.3,0,0.5,0c0.1,0,0.1,0,0.2,0c6.7,0,11.5-0.7,16.1-2.3c7.3-2.6,13.3-6.7,17.9-12.1
	c4.8-5.7,7.4-12.1,7.8-19.3C82.3,44.2,81.4,39.4,79.2,34.8z M41.5,77L41.5,77L41.5,77C34,77,27.4,75.5,21.4,72.2
	c-6.2-3.4-10.6-7.8-13.3-13.6C6,54,5.4,49.2,6.3,44.1c0.4-2.1,1.1-4.2,2.2-6.5C8.9,37,9,36.2,8.8,35.4c-1.1-4-1.8-7.6-2.1-11
	c-0.4-3.7-0.4-7,0-10C7,12,7.8,9.9,8.9,8.1c0.8,0.4,1.7,0.9,2.5,1.4c4.4,3.2,8.3,6.9,11.8,11c0.1,0.1,0.2,0.3,0.3,0.4
	c1.1,1.6,2.1,1.8,3.9,1.2c6.6-2.5,12.9-3.3,19.4-2.4c2.8,0.4,5.7,1,8.5,2c1.7,0.6,2.6-0.4,3-1c2.4-3.6,5.6-6.7,8.3-9.3
	c1.5-1.4,3.2-2.8,4.8-4.1L72,6.8c0.3-0.3,0.8-0.5,1.2-0.7c1,1.6,1.6,3.4,2,5.7c0.8,4.5,0.7,9.2-0.5,15.4c-0.2,1.2-0.5,2.5-0.8,3.8
	c-0.2,1.1-0.5,2.1-0.7,3.2c-0.2,0.8,0,1.8,0.4,2.7c2,4.2,2.8,8.3,2.4,12.6c-0.6,7.4-3.9,13.6-10.1,19c-4.3,3.7-9.5,6.3-15.3,7.7
	C47.7,76.7,44.5,77.1,41.5,77z"/>
</svg>
