<svg id="Layer_1" data-name="Layer 1" xmlns="http://www.w3.org/2000/svg" viewBox="0 0 151.63 137.65"><defs><style>.cls-1{fill:#fff;stroke:#fff;stroke-miterlimit:10;}</style></defs><title>computer</title><path class="cls-1" d="M156.68,14.16H24.83a9.4,9.4,0,0,0-9.4,9.39v86.54a9.4,9.4,0,0,0,9.4,9.4H156.68a9.39,9.39,0,0,0,9.39-9.4V23.55A9.39,9.39,0,0,0,156.68,14.16ZM159.87,104a9.38,9.38,0,0,1-9.39,9.39H30.64a9.39,9.39,0,0,1-9.4-9.39V29.67a9.39,9.39,0,0,1,9.4-9.39H150.48a9.38,9.38,0,0,1,9.39,9.39Z" transform="translate(-14.93 -13.66)"/><rect class="cls-1" x="71.16" y="108.21" width="9.7" height="19.4"/><rect class="cls-1" x="52.78" y="130" width="46.47" height="7.15" rx="3.57"/></svg>