<svg id="Layer_1" data-name="Layer 1" xmlns="http://www.w3.org/2000/svg" viewBox="0 0 141.14 325.27"><defs><style>.cls-1{fill:#fff;}</style></defs><title>phone</title><path class="cls-1" d="M316.66,368.17a10.39,10.39,0,0,1-10,10.81l-61.58,9.32c-21.27,10.64-24.56,32.17-21.81,63.49H175.53c1.07-89,26.49-135.19,49.85-154,11.75-9.44,87.81-14.12,88-8.39Z" transform="translate(-175.53 -286.94)"/><path class="cls-1" d="M316.66,531a10.39,10.39,0,0,0-10-10.81l-61.58-9.32c-21.27-10.64-20.33-32.35-22-63.49H175.53c1.07,89,26.49,135.19,49.85,154,11.75,9.43,87.81,14.12,88,8.39Z" transform="translate(-175.53 -286.94)"/></svg>