<?xml version="1.0" encoding="utf-8"?>
<!-- Generator: Adobe Illustrator 23.0.1, SVG Export Plug-In . SVG Version: 6.00 Build 0)  -->
<svg version="1.1" id="Layer_1" xmlns="http://www.w3.org/2000/svg" xmlns:xlink="http://www.w3.org/1999/xlink" x="0px" y="0px"
	 viewBox="0 0 194 194" style="enable-background:new 0 0 194 194;" xml:space="preserve">
<style type="text/css">
	.st0{fill:#FFFFFF;}
</style>
<path class="st0" d="M97,130.2c17.9,0,32.3-14.6,32.3-32.5c0-18-14.5-32.5-32.3-32.5S64.7,79.6,64.7,97.6
	C64.7,115.6,79.1,130.2,97,130.2z M97,146.4c-26.8,0-48.5-21.9-48.5-48.8c0-27,21.7-48.8,48.5-48.8s48.5,21.9,48.5,48.8
	C145.5,124.6,123.8,146.4,97,146.4z M177.6,109.3l-14.9,2c-2.7,0.4-5,2.2-5.9,4.9c-0.8,2.5-1.8,5.1-1.8,5.1
	c-0.4,0.9-1.4,3.1-2.4,5.3c-1.2,2.5-0.9,5.4,0.8,7.6l9.2,12c-1.8,2.3-4.4,5.5-8.1,9.2c-3.7,3.7-6.8,6.4-9.2,8.2l-11.9-9.2
	c-2.2-1.7-5.1-2-7.6-0.8c-2.4,1.2-4.8,2.3-4.8,2.3c-0.3,0.1-2.9,1.1-5.5,2c-2.6,0.9-4.5,3.2-4.8,5.9l-1.9,15
	c-2.9,0.4-7,0.7-12.2,0.7c-5.2,0-9.3-0.4-12.2-0.7l-1.9-15c-0.4-2.7-2.2-5-4.8-5.9c-2.5-0.9-5-1.8-5-1.8c-0.9-0.4-3.1-1.4-5.3-2.5
	c-2.5-1.2-5.4-0.9-7.6,0.8l-11.9,9.2c-2.3-1.8-5.5-4.5-9.1-8.2c-3.7-3.7-6.3-6.9-8.1-9.2l9.2-12c1.7-2.2,2-5.2,0.8-7.7
	c-1.1-2.2-2.1-4.5-2.3-4.9c-0.1-0.3-1.1-2.9-2-5.4c-0.9-2.6-3.2-4.5-5.9-4.9l-14.9-2c-0.4-2.9-0.7-7.1-0.7-12.3
	c0-5.2,0.4-9.4,0.7-12.3l14.9-2c2.7-0.4,5-2.3,5.9-4.9c0.9-2.6,1.8-5.1,1.9-5.2c0.1-0.2,1.2-2.7,2.4-5.2c1.2-2.5,0.9-5.4-0.8-7.7
	l-9.2-12c1.8-2.3,4.4-5.5,8.1-9.2c3.7-3.7,6.8-6.4,9.1-8.1l11.9,9.2c2.2,1.7,5.1,2,7.6,0.8c2.2-1.1,4.4-2.1,4.9-2.3
	c0.3-0.1,2.9-1.1,5.4-2c2.6-0.9,4.5-3.2,4.8-5.9l1.9-15c2.9-0.4,7-0.7,12.2-0.7s9.3,0.4,12.2,0.7l1.9,15c0.4,2.7,2.2,5,4.8,5.9
	c2.5,0.9,5.1,1.9,5.1,1.9c0.9,0.4,3.1,1.4,5.2,2.4c2.5,1.2,5.4,0.9,7.6-0.8l11.9-9.2c2.3,1.8,5.5,4.5,9.1,8.1
	c3.7,3.7,6.3,6.9,8.1,9.2l-9.2,12c-1.7,2.2-2,5.2-0.8,7.6c1.2,2.4,2.3,4.8,2.3,4.8c0.1,0.4,1.1,2.9,2,5.5c0.9,2.6,3.2,4.5,5.9,4.9
	l14.9,2c0.4,2.9,0.7,7.1,0.7,12.3C178.3,102.2,177.9,106.4,177.6,109.3L177.6,109.3z M190.8,76.4c-0.7-2.9-3.1-5-6.1-5.4l-15.8-2.1
	c-0.3-0.9-0.6-1.5-0.6-1.6l-0.3-0.6c0,0-0.2-0.6-0.6-1.4l9.7-12.7c1.8-2.4,2-5.6,0.5-8.1c-0.2-0.3-4.2-7-13.1-16
	c-8.9-9-15.6-13-15.9-13.1c-2.5-1.5-5.7-1.3-8.1,0.5l-12.6,9.8c-0.8-0.4-1.4-0.6-1.4-0.6c-0.1,0-0.3-0.1-0.8-0.3
	c0,0-0.6-0.2-1.4-0.6l-2.1-15.9c-0.4-2.9-2.5-5.4-5.4-6.1c-0.3-0.1-7.3-2-19.8-2S76.2,1.9,75.9,2c-2.9,0.7-5,3.2-5.4,6.1L68.5,24
	c-0.9,0.3-1.5,0.6-1.6,0.6c-0.5,0.2-0.6,0.3-0.7,0.3c0,0-0.6,0.3-1.4,0.6l-12.6-9.8c-2.3-1.8-5.5-2-8.1-0.5
	c-0.3,0.2-7,4.2-15.9,13.1c-8.9,9-12.9,15.7-13.1,16c-1.5,2.6-1.3,5.8,0.5,8.1l9.7,12.7c-0.4,0.9-0.6,1.4-0.6,1.4
	c-0.1,0.3-0.2,0.5-0.3,0.8c0,0-0.2,0.6-0.6,1.5L8,71c-2.9,0.4-5.3,2.5-6.1,5.4c-0.1,0.3-2,8.5-2,21.2c0,12.7,1.9,19.7,2,20
	c0.7,2.9,3.1,5,6.1,5.4l15.8,2.1c0.3,0.9,0.6,1.5,0.6,1.6c0.2,0.6,0.3,0.6,0.3,0.7c0,0,0.2,0.6,0.6,1.4l-9.7,12.7
	c-1.8,2.3-2,5.6-0.5,8.1c0.2,0.3,4.2,7,13.1,16c8.9,9,15.6,13,15.9,13.1c2.5,1.5,5.7,1.3,8.1-0.5l12.6-9.8c0.9,0.4,1.4,0.6,1.4,0.6
	c0,0,0.3,0.1,0.8,0.3c0,0,0.6,0.2,1.4,0.5l2.1,15.9c0.4,2.9,2.5,5.4,5.4,6.1c0.3,0.1,8.5,2,21.1,2c12.6,0,19.5-1.9,19.9-2
	c2.9-0.7,5-3.2,5.4-6.1l2.1-15.9c0.9-0.3,1.5-0.6,1.6-0.6l0.7-0.3c0,0,0.6-0.3,1.4-0.6l12.6,9.8c2.3,1.8,5.5,2,8.1,0.5
	c0.3-0.2,7-4.2,15.9-13.1c8.9-9,12.9-15.7,13.1-16c1.5-2.6,1.3-5.8-0.5-8.1l-9.7-12.7c0.4-0.9,0.6-1.4,0.6-1.4c0,0,0.1-0.3,0.3-0.8
	c0,0,0.2-0.6,0.6-1.5l15.8-2.1c2.9-0.4,5.3-2.5,6.1-5.4c0.1-0.3,3.2-7.9,3.2-20.6C194,84.3,190.9,76.7,190.8,76.4L190.8,76.4z"/>
</svg>
